<?xml version="1.0" encoding="utf-8" standalone="no"?>
<!DOCTYPE svg PUBLIC "-//W3C//DTD SVG 1.1//EN"
  "http://www.w3.org/Graphics/SVG/1.1/DTD/svg11.dtd">
<svg xmlns:xlink="http://www.w3.org/1999/xlink" width="603.489687pt" height="460.665937pt" viewBox="0 0 603.489687 460.665937" xmlns="http://www.w3.org/2000/svg" version="1.1">
 <metadata>
  <rdf:RDF xmlns:dc="http://purl.org/dc/elements/1.1/" xmlns:cc="http://creativecommons.org/ns#" xmlns:rdf="http://www.w3.org/1999/02/22-rdf-syntax-ns#">
   <cc:Work>
    <dc:type rdf:resource="http://purl.org/dc/dcmitype/StillImage"/>
    <dc:date>2024-12-03T16:20:02.025862</dc:date>
    <dc:format>image/svg+xml</dc:format>
    <dc:creator>
     <cc:Agent>
      <dc:title>Matplotlib v3.7.1, https://matplotlib.org/</dc:title>
     </cc:Agent>
    </dc:creator>
   </cc:Work>
  </rdf:RDF>
 </metadata>
 <defs>
  <style type="text/css">*{stroke-linejoin: round; stroke-linecap: butt}</style>
 </defs>
 <g id="figure_1">
  <g id="patch_1">
   <path d="M 0 460.665937 
L 603.489687 460.665937 
L 603.489687 0 
L 0 0 
z
" style="fill: #ffffff"/>
  </g>
  <g id="axes_1">
   <g id="patch_2">
    <path d="M 45.489688 443.52 
L 603.489688 443.52 
L 603.489688 -0 
L 45.489688 -0 
z
" style="fill: #ffffff"/>
   </g>
   <g id="patch_3">
    <path d="M 77.981278 443.52 
L 92.237186 443.52 
L 92.237186 149.296583 
L 77.981278 149.296583 
z
" clip-path="url(#peb3118e8a1)" style="fill: #d3d3d3; opacity: 0.9"/>
   </g>
   <g id="patch_4">
    <path d="M 125.500971 443.52 
L 139.756879 443.52 
L 139.756879 135.142141 
L 125.500971 135.142141 
z
" clip-path="url(#peb3118e8a1)" style="fill: #d3d3d3; opacity: 0.9"/>
   </g>
   <g id="patch_5">
    <path d="M 173.020665 443.52 
L 187.276573 443.52 
L 187.276573 118.456085 
L 173.020665 118.456085 
z
" clip-path="url(#peb3118e8a1)" style="fill: #d3d3d3; opacity: 0.9"/>
   </g>
   <g id="patch_6">
    <path d="M 220.540358 443.52 
L 234.796266 443.52 
L 234.796266 96.35418 
L 220.540358 96.35418 
z
" clip-path="url(#peb3118e8a1)" style="fill: #d3d3d3; opacity: 0.9"/>
   </g>
   <g id="patch_7">
    <path d="M 268.060052 443.52 
L 282.31596 443.52 
L 282.31596 77.416794 
L 268.060052 77.416794 
z
" clip-path="url(#peb3118e8a1)" style="fill: #d3d3d3; opacity: 0.9"/>
   </g>
   <g id="patch_8">
    <path d="M 315.579745 443.52 
L 329.835653 443.52 
L 329.835653 68.655597 
L 315.579745 68.655597 
z
" clip-path="url(#peb3118e8a1)" style="fill: #d3d3d3; opacity: 0.9"/>
   </g>
   <g id="patch_9">
    <path d="M 363.099438 443.52 
L 377.355346 443.52 
L 377.355346 61.381724 
L 363.099438 61.381724 
z
" clip-path="url(#peb3118e8a1)" style="fill: #d3d3d3; opacity: 0.9"/>
   </g>
   <g id="patch_10">
    <path d="M 410.619132 443.52 
L 424.87504 443.52 
L 424.87504 51.124161 
L 410.619132 51.124161 
z
" clip-path="url(#peb3118e8a1)" style="fill: #d3d3d3; opacity: 0.9"/>
   </g>
   <g id="patch_11">
    <path d="M 458.138825 443.52 
L 472.394733 443.52 
L 472.394733 39.193924 
L 458.138825 39.193924 
z
" clip-path="url(#peb3118e8a1)" style="fill: #d3d3d3; opacity: 0.9"/>
   </g>
   <g id="patch_12">
    <path d="M 505.658519 443.52 
L 519.914427 443.52 
L 519.914427 31.951697 
L 505.658519 31.951697 
z
" clip-path="url(#peb3118e8a1)" style="fill: #d3d3d3; opacity: 0.9"/>
   </g>
   <g id="patch_13">
    <path d="M 553.178212 443.52 
L 567.43412 443.52 
L 567.43412 21.12 
L 553.178212 21.12 
z
" clip-path="url(#peb3118e8a1)" style="fill: #d3d3d3; opacity: 0.9"/>
   </g>
   <g id="line2d_1">
    <path d="M 45.489688 398.312585 
L 603.489688 398.312585 
" clip-path="url(#peb3118e8a1)" style="fill: none; stroke-dasharray: 3.7,1.6; stroke-dashoffset: 0; stroke: #d3d3d3; stroke-opacity: 0.3"/>
   </g>
   <g id="line2d_2">
    <path d="M 45.489688 353.105171 
L 603.489688 353.105171 
" clip-path="url(#peb3118e8a1)" style="fill: none; stroke-dasharray: 3.7,1.6; stroke-dashoffset: 0; stroke: #d3d3d3; stroke-opacity: 0.3"/>
   </g>
   <g id="line2d_3">
    <path d="M 45.489688 307.897756 
L 603.489688 307.897756 
" clip-path="url(#peb3118e8a1)" style="fill: none; stroke-dasharray: 3.7,1.6; stroke-dashoffset: 0; stroke: #d3d3d3; stroke-opacity: 0.3"/>
   </g>
   <g id="line2d_4">
    <path d="M 45.489688 262.690341 
L 603.489688 262.690341 
" clip-path="url(#peb3118e8a1)" style="fill: none; stroke-dasharray: 3.7,1.6; stroke-dashoffset: 0; stroke: #d3d3d3; stroke-opacity: 0.3"/>
   </g>
   <g id="line2d_5">
    <path d="M 45.489688 217.482926 
L 603.489688 217.482926 
" clip-path="url(#peb3118e8a1)" style="fill: none; stroke-dasharray: 3.7,1.6; stroke-dashoffset: 0; stroke: #d3d3d3; stroke-opacity: 0.3"/>
   </g>
   <g id="line2d_6">
    <path d="M 45.489688 172.275512 
L 603.489688 172.275512 
" clip-path="url(#peb3118e8a1)" style="fill: none; stroke-dasharray: 3.7,1.6; stroke-dashoffset: 0; stroke: #d3d3d3; stroke-opacity: 0.3"/>
   </g>
   <g id="line2d_7">
    <path d="M 45.489688 127.068097 
L 603.489688 127.068097 
" clip-path="url(#peb3118e8a1)" style="fill: none; stroke-dasharray: 3.7,1.6; stroke-dashoffset: 0; stroke: #d3d3d3; stroke-opacity: 0.3"/>
   </g>
   <g id="line2d_8">
    <path d="M 45.489688 81.860682 
L 603.489688 81.860682 
" clip-path="url(#peb3118e8a1)" style="fill: none; stroke-dasharray: 3.7,1.6; stroke-dashoffset: 0; stroke: #d3d3d3; stroke-opacity: 0.3"/>
   </g>
   <g id="line2d_9">
    <path d="M 45.489688 36.653268 
L 603.489688 36.653268 
" clip-path="url(#peb3118e8a1)" style="fill: none; stroke-dasharray: 3.7,1.6; stroke-dashoffset: 0; stroke: #d3d3d3; stroke-opacity: 0.3"/>
   </g>
   <g id="matplotlib.axis_1">
    <g id="xtick_1">
     <g id="line2d_10">
      <defs>
       <path id="md75d921fae" d="M 0 0 
L 0 3.5 
" style="stroke: #ffffff; stroke-width: 0.8"/>
      </defs>
      <g>
       <use xlink:href="#md75d921fae" x="85.109232" y="443.52" style="fill: #ffffff; stroke: #ffffff; stroke-width: 0.8"/>
      </g>
     </g>
     <g id="text_1">
      <!-- 2014 -->
      <g transform="translate(71.111732 458.378281) scale(0.11 -0.11)">
       <defs>
        <path id="DejaVuSans-32" d="M 1228 531 
L 3431 531 
L 3431 0 
L 469 0 
L 469 531 
Q 828 903 1448 1529 
Q 2069 2156 2228 2338 
Q 2531 2678 2651 2914 
Q 2772 3150 2772 3378 
Q 2772 3750 2511 3984 
Q 2250 4219 1831 4219 
Q 1534 4219 1204 4116 
Q 875 4013 500 3803 
L 500 4441 
Q 881 4594 1212 4672 
Q 1544 4750 1819 4750 
Q 2544 4750 2975 4387 
Q 3406 4025 3406 3419 
Q 3406 3131 3298 2873 
Q 3191 2616 2906 2266 
Q 2828 2175 2409 1742 
Q 1991 1309 1228 531 
z
" transform="scale(0.015625)"/>
        <path id="DejaVuSans-30" d="M 2034 4250 
Q 1547 4250 1301 3770 
Q 1056 3291 1056 2328 
Q 1056 1369 1301 889 
Q 1547 409 2034 409 
Q 2525 409 2770 889 
Q 3016 1369 3016 2328 
Q 3016 3291 2770 3770 
Q 2525 4250 2034 4250 
z
M 2034 4750 
Q 2819 4750 3233 4129 
Q 3647 3509 3647 2328 
Q 3647 1150 3233 529 
Q 2819 -91 2034 -91 
Q 1250 -91 836 529 
Q 422 1150 422 2328 
Q 422 3509 836 4129 
Q 1250 4750 2034 4750 
z
" transform="scale(0.015625)"/>
        <path id="DejaVuSans-31" d="M 794 531 
L 1825 531 
L 1825 4091 
L 703 3866 
L 703 4441 
L 1819 4666 
L 2450 4666 
L 2450 531 
L 3481 531 
L 3481 0 
L 794 0 
L 794 531 
z
" transform="scale(0.015625)"/>
        <path id="DejaVuSans-34" d="M 2419 4116 
L 825 1625 
L 2419 1625 
L 2419 4116 
z
M 2253 4666 
L 3047 4666 
L 3047 1625 
L 3713 1625 
L 3713 1100 
L 3047 1100 
L 3047 0 
L 2419 0 
L 2419 1100 
L 313 1100 
L 313 1709 
L 2253 4666 
z
" transform="scale(0.015625)"/>
       </defs>
       <use xlink:href="#DejaVuSans-32"/>
       <use xlink:href="#DejaVuSans-30" x="63.623047"/>
       <use xlink:href="#DejaVuSans-31" x="127.246094"/>
       <use xlink:href="#DejaVuSans-34" x="190.869141"/>
      </g>
     </g>
    </g>
    <g id="xtick_2">
     <g id="line2d_11">
      <g>
       <use xlink:href="#md75d921fae" x="132.628925" y="443.52" style="fill: #ffffff; stroke: #ffffff; stroke-width: 0.8"/>
      </g>
     </g>
     <g id="text_2">
      <!-- 2015 -->
      <g transform="translate(118.631425 458.378281) scale(0.11 -0.11)">
       <defs>
        <path id="DejaVuSans-35" d="M 691 4666 
L 3169 4666 
L 3169 4134 
L 1269 4134 
L 1269 2991 
Q 1406 3038 1543 3061 
Q 1681 3084 1819 3084 
Q 2600 3084 3056 2656 
Q 3513 2228 3513 1497 
Q 3513 744 3044 326 
Q 2575 -91 1722 -91 
Q 1428 -91 1123 -41 
Q 819 9 494 109 
L 494 744 
Q 775 591 1075 516 
Q 1375 441 1709 441 
Q 2250 441 2565 725 
Q 2881 1009 2881 1497 
Q 2881 1984 2565 2268 
Q 2250 2553 1709 2553 
Q 1456 2553 1204 2497 
Q 953 2441 691 2322 
L 691 4666 
z
" transform="scale(0.015625)"/>
       </defs>
       <use xlink:href="#DejaVuSans-32"/>
       <use xlink:href="#DejaVuSans-30" x="63.623047"/>
       <use xlink:href="#DejaVuSans-31" x="127.246094"/>
       <use xlink:href="#DejaVuSans-35" x="190.869141"/>
      </g>
     </g>
    </g>
    <g id="xtick_3">
     <g id="line2d_12">
      <g>
       <use xlink:href="#md75d921fae" x="180.148619" y="443.52" style="fill: #ffffff; stroke: #ffffff; stroke-width: 0.8"/>
      </g>
     </g>
     <g id="text_3">
      <!-- 2016 -->
      <g transform="translate(166.151119 458.378281) scale(0.11 -0.11)">
       <defs>
        <path id="DejaVuSans-36" d="M 2113 2584 
Q 1688 2584 1439 2293 
Q 1191 2003 1191 1497 
Q 1191 994 1439 701 
Q 1688 409 2113 409 
Q 2538 409 2786 701 
Q 3034 994 3034 1497 
Q 3034 2003 2786 2293 
Q 2538 2584 2113 2584 
z
M 3366 4563 
L 3366 3988 
Q 3128 4100 2886 4159 
Q 2644 4219 2406 4219 
Q 1781 4219 1451 3797 
Q 1122 3375 1075 2522 
Q 1259 2794 1537 2939 
Q 1816 3084 2150 3084 
Q 2853 3084 3261 2657 
Q 3669 2231 3669 1497 
Q 3669 778 3244 343 
Q 2819 -91 2113 -91 
Q 1303 -91 875 529 
Q 447 1150 447 2328 
Q 447 3434 972 4092 
Q 1497 4750 2381 4750 
Q 2619 4750 2861 4703 
Q 3103 4656 3366 4563 
z
" transform="scale(0.015625)"/>
       </defs>
       <use xlink:href="#DejaVuSans-32"/>
       <use xlink:href="#DejaVuSans-30" x="63.623047"/>
       <use xlink:href="#DejaVuSans-31" x="127.246094"/>
       <use xlink:href="#DejaVuSans-36" x="190.869141"/>
      </g>
     </g>
    </g>
    <g id="xtick_4">
     <g id="line2d_13">
      <g>
       <use xlink:href="#md75d921fae" x="227.668312" y="443.52" style="fill: #ffffff; stroke: #ffffff; stroke-width: 0.8"/>
      </g>
     </g>
     <g id="text_4">
      <!-- 2017 -->
      <g transform="translate(213.670812 458.378281) scale(0.11 -0.11)">
       <defs>
        <path id="DejaVuSans-37" d="M 525 4666 
L 3525 4666 
L 3525 4397 
L 1831 0 
L 1172 0 
L 2766 4134 
L 525 4134 
L 525 4666 
z
" transform="scale(0.015625)"/>
       </defs>
       <use xlink:href="#DejaVuSans-32"/>
       <use xlink:href="#DejaVuSans-30" x="63.623047"/>
       <use xlink:href="#DejaVuSans-31" x="127.246094"/>
       <use xlink:href="#DejaVuSans-37" x="190.869141"/>
      </g>
     </g>
    </g>
    <g id="xtick_5">
     <g id="line2d_14">
      <g>
       <use xlink:href="#md75d921fae" x="275.188006" y="443.52" style="fill: #ffffff; stroke: #ffffff; stroke-width: 0.8"/>
      </g>
     </g>
     <g id="text_5">
      <!-- 2018 -->
      <g transform="translate(261.190506 458.378281) scale(0.11 -0.11)">
       <defs>
        <path id="DejaVuSans-38" d="M 2034 2216 
Q 1584 2216 1326 1975 
Q 1069 1734 1069 1313 
Q 1069 891 1326 650 
Q 1584 409 2034 409 
Q 2484 409 2743 651 
Q 3003 894 3003 1313 
Q 3003 1734 2745 1975 
Q 2488 2216 2034 2216 
z
M 1403 2484 
Q 997 2584 770 2862 
Q 544 3141 544 3541 
Q 544 4100 942 4425 
Q 1341 4750 2034 4750 
Q 2731 4750 3128 4425 
Q 3525 4100 3525 3541 
Q 3525 3141 3298 2862 
Q 3072 2584 2669 2484 
Q 3125 2378 3379 2068 
Q 3634 1759 3634 1313 
Q 3634 634 3220 271 
Q 2806 -91 2034 -91 
Q 1263 -91 848 271 
Q 434 634 434 1313 
Q 434 1759 690 2068 
Q 947 2378 1403 2484 
z
M 1172 3481 
Q 1172 3119 1398 2916 
Q 1625 2713 2034 2713 
Q 2441 2713 2670 2916 
Q 2900 3119 2900 3481 
Q 2900 3844 2670 4047 
Q 2441 4250 2034 4250 
Q 1625 4250 1398 4047 
Q 1172 3844 1172 3481 
z
" transform="scale(0.015625)"/>
       </defs>
       <use xlink:href="#DejaVuSans-32"/>
       <use xlink:href="#DejaVuSans-30" x="63.623047"/>
       <use xlink:href="#DejaVuSans-31" x="127.246094"/>
       <use xlink:href="#DejaVuSans-38" x="190.869141"/>
      </g>
     </g>
    </g>
    <g id="xtick_6">
     <g id="line2d_15">
      <g>
       <use xlink:href="#md75d921fae" x="322.707699" y="443.52" style="fill: #ffffff; stroke: #ffffff; stroke-width: 0.8"/>
      </g>
     </g>
     <g id="text_6">
      <!-- 2019 -->
      <g transform="translate(308.710199 458.378281) scale(0.11 -0.11)">
       <defs>
        <path id="DejaVuSans-39" d="M 703 97 
L 703 672 
Q 941 559 1184 500 
Q 1428 441 1663 441 
Q 2288 441 2617 861 
Q 2947 1281 2994 2138 
Q 2813 1869 2534 1725 
Q 2256 1581 1919 1581 
Q 1219 1581 811 2004 
Q 403 2428 403 3163 
Q 403 3881 828 4315 
Q 1253 4750 1959 4750 
Q 2769 4750 3195 4129 
Q 3622 3509 3622 2328 
Q 3622 1225 3098 567 
Q 2575 -91 1691 -91 
Q 1453 -91 1209 -44 
Q 966 3 703 97 
z
M 1959 2075 
Q 2384 2075 2632 2365 
Q 2881 2656 2881 3163 
Q 2881 3666 2632 3958 
Q 2384 4250 1959 4250 
Q 1534 4250 1286 3958 
Q 1038 3666 1038 3163 
Q 1038 2656 1286 2365 
Q 1534 2075 1959 2075 
z
" transform="scale(0.015625)"/>
       </defs>
       <use xlink:href="#DejaVuSans-32"/>
       <use xlink:href="#DejaVuSans-30" x="63.623047"/>
       <use xlink:href="#DejaVuSans-31" x="127.246094"/>
       <use xlink:href="#DejaVuSans-39" x="190.869141"/>
      </g>
     </g>
    </g>
    <g id="xtick_7">
     <g id="line2d_16">
      <g>
       <use xlink:href="#md75d921fae" x="370.227392" y="443.52" style="fill: #ffffff; stroke: #ffffff; stroke-width: 0.8"/>
      </g>
     </g>
     <g id="text_7">
      <!-- 2020 -->
      <g transform="translate(356.229892 458.378281) scale(0.11 -0.11)">
       <use xlink:href="#DejaVuSans-32"/>
       <use xlink:href="#DejaVuSans-30" x="63.623047"/>
       <use xlink:href="#DejaVuSans-32" x="127.246094"/>
       <use xlink:href="#DejaVuSans-30" x="190.869141"/>
      </g>
     </g>
    </g>
    <g id="xtick_8">
     <g id="line2d_17">
      <g>
       <use xlink:href="#md75d921fae" x="417.747086" y="443.52" style="fill: #ffffff; stroke: #ffffff; stroke-width: 0.8"/>
      </g>
     </g>
     <g id="text_8">
      <!-- 2021 -->
      <g transform="translate(403.749586 458.378281) scale(0.11 -0.11)">
       <use xlink:href="#DejaVuSans-32"/>
       <use xlink:href="#DejaVuSans-30" x="63.623047"/>
       <use xlink:href="#DejaVuSans-32" x="127.246094"/>
       <use xlink:href="#DejaVuSans-31" x="190.869141"/>
      </g>
     </g>
    </g>
    <g id="xtick_9">
     <g id="line2d_18">
      <g>
       <use xlink:href="#md75d921fae" x="465.266779" y="443.52" style="fill: #ffffff; stroke: #ffffff; stroke-width: 0.8"/>
      </g>
     </g>
     <g id="text_9">
      <!-- 2022 -->
      <g transform="translate(451.269279 458.378281) scale(0.11 -0.11)">
       <use xlink:href="#DejaVuSans-32"/>
       <use xlink:href="#DejaVuSans-30" x="63.623047"/>
       <use xlink:href="#DejaVuSans-32" x="127.246094"/>
       <use xlink:href="#DejaVuSans-32" x="190.869141"/>
      </g>
     </g>
    </g>
    <g id="xtick_10">
     <g id="line2d_19">
      <g>
       <use xlink:href="#md75d921fae" x="512.786473" y="443.52" style="fill: #ffffff; stroke: #ffffff; stroke-width: 0.8"/>
      </g>
     </g>
     <g id="text_10">
      <!-- 2023 -->
      <g transform="translate(498.788973 458.378281) scale(0.11 -0.11)">
       <defs>
        <path id="DejaVuSans-33" d="M 2597 2516 
Q 3050 2419 3304 2112 
Q 3559 1806 3559 1356 
Q 3559 666 3084 287 
Q 2609 -91 1734 -91 
Q 1441 -91 1130 -33 
Q 819 25 488 141 
L 488 750 
Q 750 597 1062 519 
Q 1375 441 1716 441 
Q 2309 441 2620 675 
Q 2931 909 2931 1356 
Q 2931 1769 2642 2001 
Q 2353 2234 1838 2234 
L 1294 2234 
L 1294 2753 
L 1863 2753 
Q 2328 2753 2575 2939 
Q 2822 3125 2822 3475 
Q 2822 3834 2567 4026 
Q 2313 4219 1838 4219 
Q 1578 4219 1281 4162 
Q 984 4106 628 3988 
L 628 4550 
Q 988 4650 1302 4700 
Q 1616 4750 1894 4750 
Q 2613 4750 3031 4423 
Q 3450 4097 3450 3541 
Q 3450 3153 3228 2886 
Q 3006 2619 2597 2516 
z
" transform="scale(0.015625)"/>
       </defs>
       <use xlink:href="#DejaVuSans-32"/>
       <use xlink:href="#DejaVuSans-30" x="63.623047"/>
       <use xlink:href="#DejaVuSans-32" x="127.246094"/>
       <use xlink:href="#DejaVuSans-33" x="190.869141"/>
      </g>
     </g>
    </g>
    <g id="xtick_11">
     <g id="line2d_20">
      <g>
       <use xlink:href="#md75d921fae" x="560.306166" y="443.52" style="fill: #ffffff; stroke: #ffffff; stroke-width: 0.8"/>
      </g>
     </g>
     <g id="text_11">
      <!-- 2024 -->
      <g transform="translate(546.308666 458.378281) scale(0.11 -0.11)">
       <use xlink:href="#DejaVuSans-32"/>
       <use xlink:href="#DejaVuSans-30" x="63.623047"/>
       <use xlink:href="#DejaVuSans-32" x="127.246094"/>
       <use xlink:href="#DejaVuSans-34" x="190.869141"/>
      </g>
     </g>
    </g>
   </g>
   <g id="matplotlib.axis_2">
    <g id="ytick_1">
     <g id="line2d_21">
      <defs>
       <path id="m3ab9b90269" d="M 0 0 
L -3.5 0 
" style="stroke: #000000; stroke-width: 0.8"/>
      </defs>
      <g>
       <use xlink:href="#m3ab9b90269" x="45.489688" y="443.52" style="stroke: #000000; stroke-width: 0.8"/>
      </g>
     </g>
     <g id="text_12">
      <!-- 0 -->
      <g transform="translate(31.490938 447.699141) scale(0.11 -0.11)">
       <use xlink:href="#DejaVuSans-30"/>
      </g>
     </g>
    </g>
    <g id="ytick_2">
     <g id="line2d_22">
      <g>
       <use xlink:href="#m3ab9b90269" x="45.489688" y="398.312585" style="stroke: #000000; stroke-width: 0.8"/>
      </g>
     </g>
     <g id="text_13">
      <!-- 10,000 -->
      <g transform="translate(0 402.491726) scale(0.11 -0.11)">
       <defs>
        <path id="DejaVuSans-2c" d="M 750 794 
L 1409 794 
L 1409 256 
L 897 -744 
L 494 -744 
L 750 256 
L 750 794 
z
" transform="scale(0.015625)"/>
       </defs>
       <use xlink:href="#DejaVuSans-31"/>
       <use xlink:href="#DejaVuSans-30" x="63.623047"/>
       <use xlink:href="#DejaVuSans-2c" x="127.246094"/>
       <use xlink:href="#DejaVuSans-30" x="159.033203"/>
       <use xlink:href="#DejaVuSans-30" x="222.65625"/>
       <use xlink:href="#DejaVuSans-30" x="286.279297"/>
      </g>
     </g>
    </g>
    <g id="ytick_3">
     <g id="line2d_23">
      <g>
       <use xlink:href="#m3ab9b90269" x="45.489688" y="353.105171" style="stroke: #000000; stroke-width: 0.8"/>
      </g>
     </g>
     <g id="text_14">
      <!-- 20,000 -->
      <g transform="translate(0 357.284311) scale(0.11 -0.11)">
       <use xlink:href="#DejaVuSans-32"/>
       <use xlink:href="#DejaVuSans-30" x="63.623047"/>
       <use xlink:href="#DejaVuSans-2c" x="127.246094"/>
       <use xlink:href="#DejaVuSans-30" x="159.033203"/>
       <use xlink:href="#DejaVuSans-30" x="222.65625"/>
       <use xlink:href="#DejaVuSans-30" x="286.279297"/>
      </g>
     </g>
    </g>
    <g id="ytick_4">
     <g id="line2d_24">
      <g>
       <use xlink:href="#m3ab9b90269" x="45.489688" y="307.897756" style="stroke: #000000; stroke-width: 0.8"/>
      </g>
     </g>
     <g id="text_15">
      <!-- 30,000 -->
      <g transform="translate(0 312.076897) scale(0.11 -0.11)">
       <use xlink:href="#DejaVuSans-33"/>
       <use xlink:href="#DejaVuSans-30" x="63.623047"/>
       <use xlink:href="#DejaVuSans-2c" x="127.246094"/>
       <use xlink:href="#DejaVuSans-30" x="159.033203"/>
       <use xlink:href="#DejaVuSans-30" x="222.65625"/>
       <use xlink:href="#DejaVuSans-30" x="286.279297"/>
      </g>
     </g>
    </g>
    <g id="ytick_5">
     <g id="line2d_25">
      <g>
       <use xlink:href="#m3ab9b90269" x="45.489688" y="262.690341" style="stroke: #000000; stroke-width: 0.8"/>
      </g>
     </g>
     <g id="text_16">
      <!-- 40,000 -->
      <g transform="translate(0 266.869482) scale(0.11 -0.11)">
       <use xlink:href="#DejaVuSans-34"/>
       <use xlink:href="#DejaVuSans-30" x="63.623047"/>
       <use xlink:href="#DejaVuSans-2c" x="127.246094"/>
       <use xlink:href="#DejaVuSans-30" x="159.033203"/>
       <use xlink:href="#DejaVuSans-30" x="222.65625"/>
       <use xlink:href="#DejaVuSans-30" x="286.279297"/>
      </g>
     </g>
    </g>
    <g id="ytick_6">
     <g id="line2d_26">
      <g>
       <use xlink:href="#m3ab9b90269" x="45.489688" y="217.482926" style="stroke: #000000; stroke-width: 0.8"/>
      </g>
     </g>
     <g id="text_17">
      <!-- 50,000 -->
      <g transform="translate(0 221.662067) scale(0.11 -0.11)">
       <use xlink:href="#DejaVuSans-35"/>
       <use xlink:href="#DejaVuSans-30" x="63.623047"/>
       <use xlink:href="#DejaVuSans-2c" x="127.246094"/>
       <use xlink:href="#DejaVuSans-30" x="159.033203"/>
       <use xlink:href="#DejaVuSans-30" x="222.65625"/>
       <use xlink:href="#DejaVuSans-30" x="286.279297"/>
      </g>
     </g>
    </g>
    <g id="ytick_7">
     <g id="line2d_27">
      <g>
       <use xlink:href="#m3ab9b90269" x="45.489688" y="172.275512" style="stroke: #000000; stroke-width: 0.8"/>
      </g>
     </g>
     <g id="text_18">
      <!-- 60,000 -->
      <g transform="translate(0 176.454652) scale(0.11 -0.11)">
       <use xlink:href="#DejaVuSans-36"/>
       <use xlink:href="#DejaVuSans-30" x="63.623047"/>
       <use xlink:href="#DejaVuSans-2c" x="127.246094"/>
       <use xlink:href="#DejaVuSans-30" x="159.033203"/>
       <use xlink:href="#DejaVuSans-30" x="222.65625"/>
       <use xlink:href="#DejaVuSans-30" x="286.279297"/>
      </g>
     </g>
    </g>
    <g id="ytick_8">
     <g id="line2d_28">
      <g>
       <use xlink:href="#m3ab9b90269" x="45.489688" y="127.068097" style="stroke: #000000; stroke-width: 0.8"/>
      </g>
     </g>
     <g id="text_19">
      <!-- 70,000 -->
      <g transform="translate(0 131.247238) scale(0.11 -0.11)">
       <use xlink:href="#DejaVuSans-37"/>
       <use xlink:href="#DejaVuSans-30" x="63.623047"/>
       <use xlink:href="#DejaVuSans-2c" x="127.246094"/>
       <use xlink:href="#DejaVuSans-30" x="159.033203"/>
       <use xlink:href="#DejaVuSans-30" x="222.65625"/>
       <use xlink:href="#DejaVuSans-30" x="286.279297"/>
      </g>
     </g>
    </g>
    <g id="ytick_9">
     <g id="line2d_29">
      <g>
       <use xlink:href="#m3ab9b90269" x="45.489688" y="81.860682" style="stroke: #000000; stroke-width: 0.8"/>
      </g>
     </g>
     <g id="text_20">
      <!-- 80,000 -->
      <g transform="translate(0 86.039823) scale(0.11 -0.11)">
       <use xlink:href="#DejaVuSans-38"/>
       <use xlink:href="#DejaVuSans-30" x="63.623047"/>
       <use xlink:href="#DejaVuSans-2c" x="127.246094"/>
       <use xlink:href="#DejaVuSans-30" x="159.033203"/>
       <use xlink:href="#DejaVuSans-30" x="222.65625"/>
       <use xlink:href="#DejaVuSans-30" x="286.279297"/>
      </g>
     </g>
    </g>
    <g id="ytick_10">
     <g id="line2d_30">
      <g>
       <use xlink:href="#m3ab9b90269" x="45.489688" y="36.653268" style="stroke: #000000; stroke-width: 0.8"/>
      </g>
     </g>
     <g id="text_21">
      <!-- 90,000 -->
      <g transform="translate(0 40.832408) scale(0.11 -0.11)">
       <use xlink:href="#DejaVuSans-39"/>
       <use xlink:href="#DejaVuSans-30" x="63.623047"/>
       <use xlink:href="#DejaVuSans-2c" x="127.246094"/>
       <use xlink:href="#DejaVuSans-30" x="159.033203"/>
       <use xlink:href="#DejaVuSans-30" x="222.65625"/>
       <use xlink:href="#DejaVuSans-30" x="286.279297"/>
      </g>
     </g>
    </g>
   </g>
   <g id="patch_14">
    <path d="M 70.853324 443.52 
L 85.109232 443.52 
L 85.109232 235.104777 
L 70.853324 235.104777 
z
" clip-path="url(#peb3118e8a1)" style="fill: #4682b4"/>
   </g>
   <g id="patch_15">
    <path d="M 118.373017 443.52 
L 132.628925 443.52 
L 132.628925 219.897002 
L 118.373017 219.897002 
z
" clip-path="url(#peb3118e8a1)" style="fill: #4682b4"/>
   </g>
   <g id="patch_16">
    <path d="M 165.892711 443.52 
L 180.148619 443.52 
L 180.148619 204.960473 
L 165.892711 204.960473 
z
" clip-path="url(#peb3118e8a1)" style="fill: #4682b4"/>
   </g>
   <g id="patch_17">
    <path d="M 213.412404 443.52 
L 227.668312 443.52 
L 227.668312 193.812324 
L 213.412404 193.812324 
z
" clip-path="url(#peb3118e8a1)" style="fill: #4682b4"/>
   </g>
   <g id="patch_18">
    <path d="M 260.932098 443.52 
L 275.188006 443.52 
L 275.188006 178.437282 
L 260.932098 178.437282 
z
" clip-path="url(#peb3118e8a1)" style="fill: #4682b4"/>
   </g>
   <g id="patch_19">
    <path d="M 308.451791 443.52 
L 322.707699 443.52 
L 322.707699 170.946414 
L 308.451791 170.946414 
z
" clip-path="url(#peb3118e8a1)" style="fill: #4682b4"/>
   </g>
   <g id="patch_20">
    <path d="M 355.971484 443.52 
L 370.227392 443.52 
L 370.227392 161.267506 
L 355.971484 161.267506 
z
" clip-path="url(#peb3118e8a1)" style="fill: #4682b4"/>
   </g>
   <g id="patch_21">
    <path d="M 403.491178 443.52 
L 417.747086 443.52 
L 417.747086 152.723305 
L 403.491178 152.723305 
z
" clip-path="url(#peb3118e8a1)" style="fill: #4682b4"/>
   </g>
   <g id="patch_22">
    <path d="M 451.010871 443.52 
L 465.266779 443.52 
L 465.266779 141.801194 
L 451.010871 141.801194 
z
" clip-path="url(#peb3118e8a1)" style="fill: #4682b4"/>
   </g>
   <g id="patch_23">
    <path d="M 494.966588 443.52 
L 509.222496 443.52 
L 509.222496 134.495675 
L 494.966588 134.495675 
z
" clip-path="url(#peb3118e8a1)" style="fill: #4682b4"/>
   </g>
   <g id="patch_24">
    <path d="M 542.486281 443.52 
L 556.742189 443.52 
L 556.742189 126.833019 
L 542.486281 126.833019 
z
" clip-path="url(#peb3118e8a1)" style="fill: #4682b4"/>
   </g>
   <g id="patch_25">
    <path d="M 77.981278 443.52 
L 92.237186 443.52 
L 92.237186 359.212692 
L 77.981278 359.212692 
z
" clip-path="url(#peb3118e8a1)" style="fill: #00b0f0"/>
   </g>
   <g id="patch_26">
    <path d="M 125.500971 443.52 
L 139.756879 443.52 
L 139.756879 359.917928 
L 125.500971 359.917928 
z
" clip-path="url(#peb3118e8a1)" style="fill: #00b0f0"/>
   </g>
   <g id="patch_27">
    <path d="M 173.020665 443.52 
L 187.276573 443.52 
L 187.276573 358.317586 
L 173.020665 358.317586 
z
" clip-path="url(#peb3118e8a1)" style="fill: #00b0f0"/>
   </g>
   <g id="patch_28">
    <path d="M 220.540358 443.52 
L 234.796266 443.52 
L 234.796266 347.639594 
L 220.540358 347.639594 
z
" clip-path="url(#peb3118e8a1)" style="fill: #00b0f0"/>
   </g>
   <g id="patch_29">
    <path d="M 268.060052 443.52 
L 282.31596 443.52 
L 282.31596 343.810526 
L 268.060052 343.810526 
z
" clip-path="url(#peb3118e8a1)" style="fill: #00b0f0"/>
   </g>
   <g id="patch_30">
    <path d="M 315.579745 443.52 
L 329.835653 443.52 
L 329.835653 342.852129 
L 315.579745 342.852129 
z
" clip-path="url(#peb3118e8a1)" style="fill: #00b0f0"/>
   </g>
   <g id="patch_31">
    <path d="M 363.099438 443.52 
L 377.355346 443.52 
L 377.355346 345.130583 
L 363.099438 345.130583 
z
" clip-path="url(#peb3118e8a1)" style="fill: #00b0f0"/>
   </g>
   <g id="patch_32">
    <path d="M 410.619132 443.52 
L 424.87504 443.52 
L 424.87504 343.674904 
L 410.619132 343.674904 
z
" clip-path="url(#peb3118e8a1)" style="fill: #00b0f0"/>
   </g>
   <g id="patch_33">
    <path d="M 458.138825 443.52 
L 472.394733 443.52 
L 472.394733 342.689382 
L 458.138825 342.689382 
z
" clip-path="url(#peb3118e8a1)" style="fill: #00b0f0"/>
   </g>
   <g id="patch_34">
    <path d="M 502.094542 443.52 
L 516.35045 443.52 
L 516.35045 344.529324 
L 502.094542 344.529324 
z
" clip-path="url(#peb3118e8a1)" style="fill: #00b0f0"/>
   </g>
   <g id="patch_35">
    <path d="M 549.614235 443.52 
L 563.870143 443.52 
L 563.870143 341.649612 
L 549.614235 341.649612 
z
" clip-path="url(#peb3118e8a1)" style="fill: #00b0f0"/>
   </g>
   <g id="patch_36">
    <path d="M 85.109232 443.52 
L 99.36514 443.52 
L 99.36514 442.019114 
L 85.109232 442.019114 
z
" clip-path="url(#peb3118e8a1)" style="fill: #00008b"/>
   </g>
   <g id="patch_37">
    <path d="M 132.628925 443.52 
L 146.884833 443.52 
L 146.884833 442.367211 
L 132.628925 442.367211 
z
" clip-path="url(#peb3118e8a1)" style="fill: #00008b"/>
   </g>
   <g id="patch_38">
    <path d="M 180.148619 443.52 
L 194.404527 443.52 
L 194.404527 442.218026 
L 180.148619 442.218026 
z
" clip-path="url(#peb3118e8a1)" style="fill: #00008b"/>
   </g>
   <g id="patch_39">
    <path d="M 227.668312 443.52 
L 241.92422 443.52 
L 241.92422 441.942261 
L 227.668312 441.942261 
z
" clip-path="url(#peb3118e8a1)" style="fill: #00008b"/>
   </g>
   <g id="patch_40">
    <path d="M 275.188006 443.52 
L 289.443914 443.52 
L 289.443914 442.208985 
L 275.188006 442.208985 
z
" clip-path="url(#peb3118e8a1)" style="fill: #00008b"/>
   </g>
   <g id="patch_41">
    <path d="M 322.707699 443.52 
L 336.963607 443.52 
L 336.963607 441.897054 
L 322.707699 441.897054 
z
" clip-path="url(#peb3118e8a1)" style="fill: #00008b"/>
   </g>
   <g id="patch_42">
    <path d="M 370.227392 443.52 
L 384.4833 443.52 
L 384.4833 442.023635 
L 370.227392 442.023635 
z
" clip-path="url(#peb3118e8a1)" style="fill: #00008b"/>
   </g>
   <g id="patch_43">
    <path d="M 417.747086 443.52 
L 432.002994 443.52 
L 432.002994 441.765952 
L 417.747086 441.765952 
z
" clip-path="url(#peb3118e8a1)" style="fill: #00008b"/>
   </g>
   <g id="patch_44">
    <path d="M 465.266779 443.52 
L 479.522687 443.52 
L 479.522687 441.743349 
L 465.266779 441.743349 
z
" clip-path="url(#peb3118e8a1)" style="fill: #00008b"/>
   </g>
   <g id="patch_45">
    <path d="M 509.222496 443.52 
L 523.478404 443.52 
L 523.478404 441.0788 
L 509.222496 441.0788 
z
" clip-path="url(#peb3118e8a1)" style="fill: #00008b"/>
   </g>
   <g id="patch_46">
    <path d="M 556.742189 443.52 
L 570.998097 443.52 
L 570.998097 440.974823 
L 556.742189 440.974823 
z
" clip-path="url(#peb3118e8a1)" style="fill: #00008b"/>
   </g>
   <g id="patch_47">
    <path d="M 516.35045 443.52 
L 530.606358 443.52 
L 530.606358 442.407898 
L 516.35045 442.407898 
z
" clip-path="url(#peb3118e8a1)" style="fill: #ff8c00"/>
   </g>
   <g id="patch_48">
    <path d="M 563.870143 443.52 
L 578.126051 443.52 
L 578.126051 442.222547 
L 563.870143 442.222547 
z
" clip-path="url(#peb3118e8a1)" style="fill: #ff8c00"/>
   </g>
   <g id="legend_1">
    <g id="patch_49">
     <path d="M 68.439688 29.904037 
L 88.439688 29.904037 
L 88.439688 22.904037 
L 68.439688 22.904037 
z
" style="fill: #d3d3d3; opacity: 0.9"/>
    </g>
    <g id="text_22">
     <!-- Total -->
     <g transform="translate(96.439688 29.904037) scale(0.1 -0.1)">
      <defs>
       <path id="DejaVuSans-54" d="M -19 4666 
L 3928 4666 
L 3928 4134 
L 2272 4134 
L 2272 0 
L 1638 0 
L 1638 4134 
L -19 4134 
L -19 4666 
z
" transform="scale(0.015625)"/>
       <path id="DejaVuSans-6f" d="M 1959 3097 
Q 1497 3097 1228 2736 
Q 959 2375 959 1747 
Q 959 1119 1226 758 
Q 1494 397 1959 397 
Q 2419 397 2687 759 
Q 2956 1122 2956 1747 
Q 2956 2369 2687 2733 
Q 2419 3097 1959 3097 
z
M 1959 3584 
Q 2709 3584 3137 3096 
Q 3566 2609 3566 1747 
Q 3566 888 3137 398 
Q 2709 -91 1959 -91 
Q 1206 -91 779 398 
Q 353 888 353 1747 
Q 353 2609 779 3096 
Q 1206 3584 1959 3584 
z
" transform="scale(0.015625)"/>
       <path id="DejaVuSans-74" d="M 1172 4494 
L 1172 3500 
L 2356 3500 
L 2356 3053 
L 1172 3053 
L 1172 1153 
Q 1172 725 1289 603 
Q 1406 481 1766 481 
L 2356 481 
L 2356 0 
L 1766 0 
Q 1100 0 847 248 
Q 594 497 594 1153 
L 594 3053 
L 172 3053 
L 172 3500 
L 594 3500 
L 594 4494 
L 1172 4494 
z
" transform="scale(0.015625)"/>
       <path id="DejaVuSans-61" d="M 2194 1759 
Q 1497 1759 1228 1600 
Q 959 1441 959 1056 
Q 959 750 1161 570 
Q 1363 391 1709 391 
Q 2188 391 2477 730 
Q 2766 1069 2766 1631 
L 2766 1759 
L 2194 1759 
z
M 3341 1997 
L 3341 0 
L 2766 0 
L 2766 531 
Q 2569 213 2275 61 
Q 1981 -91 1556 -91 
Q 1019 -91 701 211 
Q 384 513 384 1019 
Q 384 1609 779 1909 
Q 1175 2209 1959 2209 
L 2766 2209 
L 2766 2266 
Q 2766 2663 2505 2880 
Q 2244 3097 1772 3097 
Q 1472 3097 1187 3025 
Q 903 2953 641 2809 
L 641 3341 
Q 956 3463 1253 3523 
Q 1550 3584 1831 3584 
Q 2591 3584 2966 3190 
Q 3341 2797 3341 1997 
z
" transform="scale(0.015625)"/>
       <path id="DejaVuSans-6c" d="M 603 4863 
L 1178 4863 
L 1178 0 
L 603 0 
L 603 4863 
z
" transform="scale(0.015625)"/>
      </defs>
      <use xlink:href="#DejaVuSans-54"/>
      <use xlink:href="#DejaVuSans-6f" x="44.083984"/>
      <use xlink:href="#DejaVuSans-74" x="105.265625"/>
      <use xlink:href="#DejaVuSans-61" x="144.474609"/>
      <use xlink:href="#DejaVuSans-6c" x="205.753906"/>
     </g>
    </g>
    <g id="patch_50">
     <path d="M 68.439688 44.582162 
L 88.439688 44.582162 
L 88.439688 37.582162 
L 68.439688 37.582162 
z
" style="fill: #4682b4"/>
    </g>
    <g id="text_23">
     <!-- Category 1 -->
     <g transform="translate(96.439688 44.582162) scale(0.1 -0.1)">
      <defs>
       <path id="DejaVuSans-43" d="M 4122 4306 
L 4122 3641 
Q 3803 3938 3442 4084 
Q 3081 4231 2675 4231 
Q 1875 4231 1450 3742 
Q 1025 3253 1025 2328 
Q 1025 1406 1450 917 
Q 1875 428 2675 428 
Q 3081 428 3442 575 
Q 3803 722 4122 1019 
L 4122 359 
Q 3791 134 3420 21 
Q 3050 -91 2638 -91 
Q 1578 -91 968 557 
Q 359 1206 359 2328 
Q 359 3453 968 4101 
Q 1578 4750 2638 4750 
Q 3056 4750 3426 4639 
Q 3797 4528 4122 4306 
z
" transform="scale(0.015625)"/>
       <path id="DejaVuSans-65" d="M 3597 1894 
L 3597 1613 
L 953 1613 
Q 991 1019 1311 708 
Q 1631 397 2203 397 
Q 2534 397 2845 478 
Q 3156 559 3463 722 
L 3463 178 
Q 3153 47 2828 -22 
Q 2503 -91 2169 -91 
Q 1331 -91 842 396 
Q 353 884 353 1716 
Q 353 2575 817 3079 
Q 1281 3584 2069 3584 
Q 2775 3584 3186 3129 
Q 3597 2675 3597 1894 
z
M 3022 2063 
Q 3016 2534 2758 2815 
Q 2500 3097 2075 3097 
Q 1594 3097 1305 2825 
Q 1016 2553 972 2059 
L 3022 2063 
z
" transform="scale(0.015625)"/>
       <path id="DejaVuSans-67" d="M 2906 1791 
Q 2906 2416 2648 2759 
Q 2391 3103 1925 3103 
Q 1463 3103 1205 2759 
Q 947 2416 947 1791 
Q 947 1169 1205 825 
Q 1463 481 1925 481 
Q 2391 481 2648 825 
Q 2906 1169 2906 1791 
z
M 3481 434 
Q 3481 -459 3084 -895 
Q 2688 -1331 1869 -1331 
Q 1566 -1331 1297 -1286 
Q 1028 -1241 775 -1147 
L 775 -588 
Q 1028 -725 1275 -790 
Q 1522 -856 1778 -856 
Q 2344 -856 2625 -561 
Q 2906 -266 2906 331 
L 2906 616 
Q 2728 306 2450 153 
Q 2172 0 1784 0 
Q 1141 0 747 490 
Q 353 981 353 1791 
Q 353 2603 747 3093 
Q 1141 3584 1784 3584 
Q 2172 3584 2450 3431 
Q 2728 3278 2906 2969 
L 2906 3500 
L 3481 3500 
L 3481 434 
z
" transform="scale(0.015625)"/>
       <path id="DejaVuSans-72" d="M 2631 2963 
Q 2534 3019 2420 3045 
Q 2306 3072 2169 3072 
Q 1681 3072 1420 2755 
Q 1159 2438 1159 1844 
L 1159 0 
L 581 0 
L 581 3500 
L 1159 3500 
L 1159 2956 
Q 1341 3275 1631 3429 
Q 1922 3584 2338 3584 
Q 2397 3584 2469 3576 
Q 2541 3569 2628 3553 
L 2631 2963 
z
" transform="scale(0.015625)"/>
       <path id="DejaVuSans-79" d="M 2059 -325 
Q 1816 -950 1584 -1140 
Q 1353 -1331 966 -1331 
L 506 -1331 
L 506 -850 
L 844 -850 
Q 1081 -850 1212 -737 
Q 1344 -625 1503 -206 
L 1606 56 
L 191 3500 
L 800 3500 
L 1894 763 
L 2988 3500 
L 3597 3500 
L 2059 -325 
z
" transform="scale(0.015625)"/>
       <path id="DejaVuSans-20" transform="scale(0.015625)"/>
      </defs>
      <use xlink:href="#DejaVuSans-43"/>
      <use xlink:href="#DejaVuSans-61" x="69.824219"/>
      <use xlink:href="#DejaVuSans-74" x="131.103516"/>
      <use xlink:href="#DejaVuSans-65" x="170.3125"/>
      <use xlink:href="#DejaVuSans-67" x="231.835938"/>
      <use xlink:href="#DejaVuSans-6f" x="295.3125"/>
      <use xlink:href="#DejaVuSans-72" x="356.494141"/>
      <use xlink:href="#DejaVuSans-79" x="397.607422"/>
      <use xlink:href="#DejaVuSans-20" x="456.787109"/>
      <use xlink:href="#DejaVuSans-31" x="488.574219"/>
     </g>
    </g>
    <g id="patch_51">
     <path d="M 171.661563 29.904037 
L 191.661563 29.904037 
L 191.661563 22.904037 
L 171.661563 22.904037 
z
" style="fill: #00b0f0"/>
    </g>
    <g id="text_24">
     <!-- Category 2 -->
     <g transform="translate(199.661563 29.904037) scale(0.1 -0.1)">
      <use xlink:href="#DejaVuSans-43"/>
      <use xlink:href="#DejaVuSans-61" x="69.824219"/>
      <use xlink:href="#DejaVuSans-74" x="131.103516"/>
      <use xlink:href="#DejaVuSans-65" x="170.3125"/>
      <use xlink:href="#DejaVuSans-67" x="231.835938"/>
      <use xlink:href="#DejaVuSans-6f" x="295.3125"/>
      <use xlink:href="#DejaVuSans-72" x="356.494141"/>
      <use xlink:href="#DejaVuSans-79" x="397.607422"/>
      <use xlink:href="#DejaVuSans-20" x="456.787109"/>
      <use xlink:href="#DejaVuSans-32" x="488.574219"/>
     </g>
    </g>
    <g id="patch_52">
     <path d="M 171.661563 44.582162 
L 191.661563 44.582162 
L 191.661563 37.582162 
L 171.661563 37.582162 
z
" style="fill: #00008b"/>
    </g>
    <g id="text_25">
     <!-- Category 3 -->
     <g transform="translate(199.661563 44.582162) scale(0.1 -0.1)">
      <use xlink:href="#DejaVuSans-43"/>
      <use xlink:href="#DejaVuSans-61" x="69.824219"/>
      <use xlink:href="#DejaVuSans-74" x="131.103516"/>
      <use xlink:href="#DejaVuSans-65" x="170.3125"/>
      <use xlink:href="#DejaVuSans-67" x="231.835938"/>
      <use xlink:href="#DejaVuSans-6f" x="295.3125"/>
      <use xlink:href="#DejaVuSans-72" x="356.494141"/>
      <use xlink:href="#DejaVuSans-79" x="397.607422"/>
      <use xlink:href="#DejaVuSans-20" x="456.787109"/>
      <use xlink:href="#DejaVuSans-33" x="488.574219"/>
     </g>
    </g>
    <g id="patch_53">
     <path d="M 274.883438 29.904037 
L 294.883438 29.904037 
L 294.883438 22.904037 
L 274.883438 22.904037 
z
" style="fill: #ff8c00"/>
    </g>
    <g id="text_26">
     <!-- Category 4 -->
     <g transform="translate(302.883438 29.904037) scale(0.1 -0.1)">
      <use xlink:href="#DejaVuSans-43"/>
      <use xlink:href="#DejaVuSans-61" x="69.824219"/>
      <use xlink:href="#DejaVuSans-74" x="131.103516"/>
      <use xlink:href="#DejaVuSans-65" x="170.3125"/>
      <use xlink:href="#DejaVuSans-67" x="231.835938"/>
      <use xlink:href="#DejaVuSans-6f" x="295.3125"/>
      <use xlink:href="#DejaVuSans-72" x="356.494141"/>
      <use xlink:href="#DejaVuSans-79" x="397.607422"/>
      <use xlink:href="#DejaVuSans-20" x="456.787109"/>
      <use xlink:href="#DejaVuSans-34" x="488.574219"/>
     </g>
    </g>
   </g>
  </g>
 </g>
 <defs>
  <clipPath id="peb3118e8a1">
   <rect x="45.489688" y="-0" width="558" height="443.52"/>
  </clipPath>
 </defs>
</svg>
