<?xml version="1.0" encoding="utf-8" standalone="no"?>
<!DOCTYPE svg PUBLIC "-//W3C//DTD SVG 1.1//EN"
  "http://www.w3.org/Graphics/SVG/1.1/DTD/svg11.dtd">
<svg xmlns:xlink="http://www.w3.org/1999/xlink" width="610.545312pt" height="348.818125pt" viewBox="0 0 610.545312 348.818125" xmlns="http://www.w3.org/2000/svg" version="1.1">
 <metadata>
  <rdf:RDF xmlns:dc="http://purl.org/dc/elements/1.1/" xmlns:cc="http://creativecommons.org/ns#" xmlns:rdf="http://www.w3.org/1999/02/22-rdf-syntax-ns#">
   <cc:Work>
    <dc:type rdf:resource="http://purl.org/dc/dcmitype/StillImage"/>
    <dc:date>2025-10-06T07:45:23.703184</dc:date>
    <dc:format>image/svg+xml</dc:format>
    <dc:creator>
     <cc:Agent>
      <dc:title>Matplotlib v3.9.3, https://matplotlib.org/</dc:title>
     </cc:Agent>
    </dc:creator>
   </cc:Work>
  </rdf:RDF>
 </metadata>
 <defs>
  <style type="text/css">*{stroke-linejoin: round; stroke-linecap: butt}</style>
 </defs>
 <g id="figure_1">
  <g id="patch_1">
   <path d="M 0 348.818125 
L 610.545312 348.818125 
L 610.545312 0 
L 0 0 
z
" style="fill: #ffffff"/>
  </g>
  <g id="axes_1">
   <g id="patch_2">
    <path d="M 52.545313 332.64 
L 610.545313 332.64 
L 610.545313 0 
L 52.545313 0 
z
" style="fill: #ffffff"/>
   </g>
   <g id="patch_3">
    <path d="M 85.036903 332.64 
L 99.292811 332.64 
L 99.292811 109.969261 
L 85.036903 109.969261 
z
" clip-path="url(#p146882c142)" style="fill: #d3d3d3; opacity: 0.9"/>
   </g>
   <g id="patch_4">
    <path d="M 132.556596 332.64 
L 146.812504 332.64 
L 146.812504 97.920742 
L 132.556596 97.920742 
z
" clip-path="url(#p146882c142)" style="fill: #d3d3d3; opacity: 0.9"/>
   </g>
   <g id="patch_5">
    <path d="M 180.07629 332.64 
L 194.332198 332.64 
L 194.332198 81.961595 
L 180.07629 81.961595 
z
" clip-path="url(#p146882c142)" style="fill: #d3d3d3; opacity: 0.9"/>
   </g>
   <g id="patch_6">
    <path d="M 227.595983 332.64 
L 241.851891 332.64 
L 241.851891 68.287456 
L 227.595983 68.287456 
z
" clip-path="url(#p146882c142)" style="fill: #d3d3d3; opacity: 0.9"/>
   </g>
   <g id="patch_7">
    <path d="M 275.115677 332.64 
L 289.371585 332.64 
L 289.371585 61.961249 
L 275.115677 61.961249 
z
" clip-path="url(#p146882c142)" style="fill: #d3d3d3; opacity: 0.9"/>
   </g>
   <g id="patch_8">
    <path d="M 322.63537 332.64 
L 336.891278 332.64 
L 336.891278 56.708995 
L 322.63537 56.708995 
z
" clip-path="url(#p146882c142)" style="fill: #d3d3d3; opacity: 0.9"/>
   </g>
   <g id="patch_9">
    <path d="M 370.155063 332.64 
L 384.410971 332.64 
L 384.410971 49.302306 
L 370.155063 49.302306 
z
" clip-path="url(#p146882c142)" style="fill: #d3d3d3; opacity: 0.9"/>
   </g>
   <g id="patch_10">
    <path d="M 417.674757 332.64 
L 431.930665 332.64 
L 431.930665 40.687827 
L 417.674757 40.687827 
z
" clip-path="url(#p146882c142)" style="fill: #d3d3d3; opacity: 0.9"/>
   </g>
   <g id="patch_11">
    <path d="M 465.19445 332.64 
L 479.450358 332.64 
L 479.450358 35.458423 
L 465.19445 35.458423 
z
" clip-path="url(#p146882c142)" style="fill: #d3d3d3; opacity: 0.9"/>
   </g>
   <g id="patch_12">
    <path d="M 512.714144 332.64 
L 526.970052 332.64 
L 526.970052 27.637168 
L 512.714144 27.637168 
z
" clip-path="url(#p146882c142)" style="fill: #d3d3d3; opacity: 0.9"/>
   </g>
   <g id="patch_13">
    <path d="M 560.233837 332.64 
L 574.489745 332.64 
L 574.489745 15.84 
L 560.233837 15.84 
z
" clip-path="url(#p146882c142)" style="fill: #d3d3d3; opacity: 0.9"/>
   </g>
   <g id="line2d_1">
    <path d="M 52.545313 299.997032 
L 610.545313 299.997032 
" clip-path="url(#p146882c142)" style="fill: none; stroke-dasharray: 3.7,1.6; stroke-dashoffset: 0; stroke: #d3d3d3; stroke-opacity: 0.3"/>
   </g>
   <g id="line2d_2">
    <path d="M 52.545313 267.354065 
L 610.545313 267.354065 
" clip-path="url(#p146882c142)" style="fill: none; stroke-dasharray: 3.7,1.6; stroke-dashoffset: 0; stroke: #d3d3d3; stroke-opacity: 0.3"/>
   </g>
   <g id="line2d_3">
    <path d="M 52.545313 234.711097 
L 610.545313 234.711097 
" clip-path="url(#p146882c142)" style="fill: none; stroke-dasharray: 3.7,1.6; stroke-dashoffset: 0; stroke: #d3d3d3; stroke-opacity: 0.3"/>
   </g>
   <g id="line2d_4">
    <path d="M 52.545313 202.06813 
L 610.545313 202.06813 
" clip-path="url(#p146882c142)" style="fill: none; stroke-dasharray: 3.7,1.6; stroke-dashoffset: 0; stroke: #d3d3d3; stroke-opacity: 0.3"/>
   </g>
   <g id="line2d_5">
    <path d="M 52.545313 169.425162 
L 610.545313 169.425162 
" clip-path="url(#p146882c142)" style="fill: none; stroke-dasharray: 3.7,1.6; stroke-dashoffset: 0; stroke: #d3d3d3; stroke-opacity: 0.3"/>
   </g>
   <g id="line2d_6">
    <path d="M 52.545313 136.782195 
L 610.545313 136.782195 
" clip-path="url(#p146882c142)" style="fill: none; stroke-dasharray: 3.7,1.6; stroke-dashoffset: 0; stroke: #d3d3d3; stroke-opacity: 0.3"/>
   </g>
   <g id="line2d_7">
    <path d="M 52.545313 104.139227 
L 610.545313 104.139227 
" clip-path="url(#p146882c142)" style="fill: none; stroke-dasharray: 3.7,1.6; stroke-dashoffset: 0; stroke: #d3d3d3; stroke-opacity: 0.3"/>
   </g>
   <g id="line2d_8">
    <path d="M 52.545313 71.49626 
L 610.545313 71.49626 
" clip-path="url(#p146882c142)" style="fill: none; stroke-dasharray: 3.7,1.6; stroke-dashoffset: 0; stroke: #d3d3d3; stroke-opacity: 0.3"/>
   </g>
   <g id="line2d_9">
    <path d="M 52.545313 38.853292 
L 610.545313 38.853292 
" clip-path="url(#p146882c142)" style="fill: none; stroke-dasharray: 3.7,1.6; stroke-dashoffset: 0; stroke: #d3d3d3; stroke-opacity: 0.3"/>
   </g>
   <g id="line2d_10">
    <path d="M 52.545313 6.210325 
L 610.545313 6.210325 
" clip-path="url(#p146882c142)" style="fill: none; stroke-dasharray: 3.7,1.6; stroke-dashoffset: 0; stroke: #d3d3d3; stroke-opacity: 0.3"/>
   </g>
   <g id="matplotlib.axis_1">
    <g id="xtick_1">
     <g id="line2d_11">
      <defs>
       <path id="ma54014fe61" d="M 0 0 
L 0 3.5 
" style="stroke: #ffffff; stroke-width: 0.8"/>
      </defs>
      <g>
       <use xlink:href="#ma54014fe61" x="92.164857" y="332.64" style="fill: #ffffff; stroke: #ffffff; stroke-width: 0.8"/>
      </g>
     </g>
     <g id="text_1">
      <!-- 2015 -->
      <g transform="translate(78.249232 346.738438) scale(0.1 -0.1)">
       <defs>
        <path id="DejaVuSans-Bold-32" d="M 1844 884 
L 3897 884 
L 3897 0 
L 506 0 
L 506 884 
L 2209 2388 
Q 2438 2594 2547 2791 
Q 2656 2988 2656 3200 
Q 2656 3528 2436 3728 
Q 2216 3928 1850 3928 
Q 1569 3928 1234 3808 
Q 900 3688 519 3450 
L 519 4475 
Q 925 4609 1322 4679 
Q 1719 4750 2100 4750 
Q 2938 4750 3402 4381 
Q 3866 4013 3866 3353 
Q 3866 2972 3669 2642 
Q 3472 2313 2841 1759 
L 1844 884 
z
" transform="scale(0.015625)"/>
        <path id="DejaVuSans-Bold-30" d="M 2944 2338 
Q 2944 3213 2780 3570 
Q 2616 3928 2228 3928 
Q 1841 3928 1675 3570 
Q 1509 3213 1509 2338 
Q 1509 1453 1675 1090 
Q 1841 728 2228 728 
Q 2613 728 2778 1090 
Q 2944 1453 2944 2338 
z
M 4147 2328 
Q 4147 1169 3647 539 
Q 3147 -91 2228 -91 
Q 1306 -91 806 539 
Q 306 1169 306 2328 
Q 306 3491 806 4120 
Q 1306 4750 2228 4750 
Q 3147 4750 3647 4120 
Q 4147 3491 4147 2328 
z
" transform="scale(0.015625)"/>
        <path id="DejaVuSans-Bold-31" d="M 750 831 
L 1813 831 
L 1813 3847 
L 722 3622 
L 722 4441 
L 1806 4666 
L 2950 4666 
L 2950 831 
L 4013 831 
L 4013 0 
L 750 0 
L 750 831 
z
" transform="scale(0.015625)"/>
        <path id="DejaVuSans-Bold-35" d="M 678 4666 
L 3669 4666 
L 3669 3781 
L 1638 3781 
L 1638 3059 
Q 1775 3097 1914 3117 
Q 2053 3138 2203 3138 
Q 3056 3138 3531 2711 
Q 4006 2284 4006 1522 
Q 4006 766 3489 337 
Q 2972 -91 2053 -91 
Q 1656 -91 1267 -14 
Q 878 63 494 219 
L 494 1166 
Q 875 947 1217 837 
Q 1559 728 1863 728 
Q 2300 728 2551 942 
Q 2803 1156 2803 1522 
Q 2803 1891 2551 2103 
Q 2300 2316 1863 2316 
Q 1603 2316 1309 2248 
Q 1016 2181 678 2041 
L 678 4666 
z
" transform="scale(0.015625)"/>
       </defs>
       <use xlink:href="#DejaVuSans-Bold-32"/>
       <use xlink:href="#DejaVuSans-Bold-30" x="69.580078"/>
       <use xlink:href="#DejaVuSans-Bold-31" x="139.160156"/>
       <use xlink:href="#DejaVuSans-Bold-35" x="208.740234"/>
      </g>
     </g>
    </g>
    <g id="xtick_2">
     <g id="line2d_12">
      <g>
       <use xlink:href="#ma54014fe61" x="139.68455" y="332.64" style="fill: #ffffff; stroke: #ffffff; stroke-width: 0.8"/>
      </g>
     </g>
     <g id="text_2">
      <!-- 2016 -->
      <g transform="translate(125.768925 346.738438) scale(0.1 -0.1)">
       <defs>
        <path id="DejaVuSans-Bold-36" d="M 2316 2303 
Q 2000 2303 1842 2098 
Q 1684 1894 1684 1484 
Q 1684 1075 1842 870 
Q 2000 666 2316 666 
Q 2634 666 2792 870 
Q 2950 1075 2950 1484 
Q 2950 1894 2792 2098 
Q 2634 2303 2316 2303 
z
M 3803 4544 
L 3803 3681 
Q 3506 3822 3243 3889 
Q 2981 3956 2731 3956 
Q 2194 3956 1894 3657 
Q 1594 3359 1544 2772 
Q 1750 2925 1990 3001 
Q 2231 3078 2516 3078 
Q 3231 3078 3670 2659 
Q 4109 2241 4109 1563 
Q 4109 813 3618 361 
Q 3128 -91 2303 -91 
Q 1394 -91 895 523 
Q 397 1138 397 2266 
Q 397 3422 980 4083 
Q 1563 4744 2578 4744 
Q 2900 4744 3203 4694 
Q 3506 4644 3803 4544 
z
" transform="scale(0.015625)"/>
       </defs>
       <use xlink:href="#DejaVuSans-Bold-32"/>
       <use xlink:href="#DejaVuSans-Bold-30" x="69.580078"/>
       <use xlink:href="#DejaVuSans-Bold-31" x="139.160156"/>
       <use xlink:href="#DejaVuSans-Bold-36" x="208.740234"/>
      </g>
     </g>
    </g>
    <g id="xtick_3">
     <g id="line2d_13">
      <g>
       <use xlink:href="#ma54014fe61" x="187.204244" y="332.64" style="fill: #ffffff; stroke: #ffffff; stroke-width: 0.8"/>
      </g>
     </g>
     <g id="text_3">
      <!-- 2017 -->
      <g transform="translate(173.288619 346.738438) scale(0.1 -0.1)">
       <defs>
        <path id="DejaVuSans-Bold-37" d="M 428 4666 
L 3944 4666 
L 3944 3988 
L 2125 0 
L 953 0 
L 2675 3781 
L 428 3781 
L 428 4666 
z
" transform="scale(0.015625)"/>
       </defs>
       <use xlink:href="#DejaVuSans-Bold-32"/>
       <use xlink:href="#DejaVuSans-Bold-30" x="69.580078"/>
       <use xlink:href="#DejaVuSans-Bold-31" x="139.160156"/>
       <use xlink:href="#DejaVuSans-Bold-37" x="208.740234"/>
      </g>
     </g>
    </g>
    <g id="xtick_4">
     <g id="line2d_14">
      <g>
       <use xlink:href="#ma54014fe61" x="234.723937" y="332.64" style="fill: #ffffff; stroke: #ffffff; stroke-width: 0.8"/>
      </g>
     </g>
     <g id="text_4">
      <!-- 2018 -->
      <g transform="translate(220.808312 346.738438) scale(0.1 -0.1)">
       <defs>
        <path id="DejaVuSans-Bold-38" d="M 2228 2088 
Q 1891 2088 1709 1903 
Q 1528 1719 1528 1375 
Q 1528 1031 1709 848 
Q 1891 666 2228 666 
Q 2563 666 2741 848 
Q 2919 1031 2919 1375 
Q 2919 1722 2741 1905 
Q 2563 2088 2228 2088 
z
M 1350 2484 
Q 925 2613 709 2878 
Q 494 3144 494 3541 
Q 494 4131 934 4440 
Q 1375 4750 2228 4750 
Q 3075 4750 3515 4442 
Q 3956 4134 3956 3541 
Q 3956 3144 3739 2878 
Q 3522 2613 3097 2484 
Q 3572 2353 3814 2058 
Q 4056 1763 4056 1313 
Q 4056 619 3595 264 
Q 3134 -91 2228 -91 
Q 1319 -91 855 264 
Q 391 619 391 1313 
Q 391 1763 633 2058 
Q 875 2353 1350 2484 
z
M 1631 3419 
Q 1631 3141 1786 2991 
Q 1941 2841 2228 2841 
Q 2509 2841 2662 2991 
Q 2816 3141 2816 3419 
Q 2816 3697 2662 3845 
Q 2509 3994 2228 3994 
Q 1941 3994 1786 3844 
Q 1631 3694 1631 3419 
z
" transform="scale(0.015625)"/>
       </defs>
       <use xlink:href="#DejaVuSans-Bold-32"/>
       <use xlink:href="#DejaVuSans-Bold-30" x="69.580078"/>
       <use xlink:href="#DejaVuSans-Bold-31" x="139.160156"/>
       <use xlink:href="#DejaVuSans-Bold-38" x="208.740234"/>
      </g>
     </g>
    </g>
    <g id="xtick_5">
     <g id="line2d_15">
      <g>
       <use xlink:href="#ma54014fe61" x="282.243631" y="332.64" style="fill: #ffffff; stroke: #ffffff; stroke-width: 0.8"/>
      </g>
     </g>
     <g id="text_5">
      <!-- 2019 -->
      <g transform="translate(268.328006 346.738438) scale(0.1 -0.1)">
       <defs>
        <path id="DejaVuSans-Bold-39" d="M 641 103 
L 641 966 
Q 928 831 1190 764 
Q 1453 697 1709 697 
Q 2247 697 2547 995 
Q 2847 1294 2900 1881 
Q 2688 1725 2447 1647 
Q 2206 1569 1925 1569 
Q 1209 1569 770 1986 
Q 331 2403 331 3084 
Q 331 3838 820 4291 
Q 1309 4744 2131 4744 
Q 3044 4744 3544 4128 
Q 4044 3513 4044 2388 
Q 4044 1231 3459 570 
Q 2875 -91 1856 -91 
Q 1528 -91 1228 -42 
Q 928 6 641 103 
z
M 2125 2350 
Q 2441 2350 2600 2554 
Q 2759 2759 2759 3169 
Q 2759 3575 2600 3781 
Q 2441 3988 2125 3988 
Q 1809 3988 1650 3781 
Q 1491 3575 1491 3169 
Q 1491 2759 1650 2554 
Q 1809 2350 2125 2350 
z
" transform="scale(0.015625)"/>
       </defs>
       <use xlink:href="#DejaVuSans-Bold-32"/>
       <use xlink:href="#DejaVuSans-Bold-30" x="69.580078"/>
       <use xlink:href="#DejaVuSans-Bold-31" x="139.160156"/>
       <use xlink:href="#DejaVuSans-Bold-39" x="208.740234"/>
      </g>
     </g>
    </g>
    <g id="xtick_6">
     <g id="line2d_16">
      <g>
       <use xlink:href="#ma54014fe61" x="329.763324" y="332.64" style="fill: #ffffff; stroke: #ffffff; stroke-width: 0.8"/>
      </g>
     </g>
     <g id="text_6">
      <!-- 2020 -->
      <g transform="translate(315.847699 346.738438) scale(0.1 -0.1)">
       <use xlink:href="#DejaVuSans-Bold-32"/>
       <use xlink:href="#DejaVuSans-Bold-30" x="69.580078"/>
       <use xlink:href="#DejaVuSans-Bold-32" x="139.160156"/>
       <use xlink:href="#DejaVuSans-Bold-30" x="208.740234"/>
      </g>
     </g>
    </g>
    <g id="xtick_7">
     <g id="line2d_17">
      <g>
       <use xlink:href="#ma54014fe61" x="377.283017" y="332.64" style="fill: #ffffff; stroke: #ffffff; stroke-width: 0.8"/>
      </g>
     </g>
     <g id="text_7">
      <!-- 2021 -->
      <g transform="translate(363.367392 346.738438) scale(0.1 -0.1)">
       <use xlink:href="#DejaVuSans-Bold-32"/>
       <use xlink:href="#DejaVuSans-Bold-30" x="69.580078"/>
       <use xlink:href="#DejaVuSans-Bold-32" x="139.160156"/>
       <use xlink:href="#DejaVuSans-Bold-31" x="208.740234"/>
      </g>
     </g>
    </g>
    <g id="xtick_8">
     <g id="line2d_18">
      <g>
       <use xlink:href="#ma54014fe61" x="424.802711" y="332.64" style="fill: #ffffff; stroke: #ffffff; stroke-width: 0.8"/>
      </g>
     </g>
     <g id="text_8">
      <!-- 2022 -->
      <g transform="translate(410.887086 346.738438) scale(0.1 -0.1)">
       <use xlink:href="#DejaVuSans-Bold-32"/>
       <use xlink:href="#DejaVuSans-Bold-30" x="69.580078"/>
       <use xlink:href="#DejaVuSans-Bold-32" x="139.160156"/>
       <use xlink:href="#DejaVuSans-Bold-32" x="208.740234"/>
      </g>
     </g>
    </g>
    <g id="xtick_9">
     <g id="line2d_19">
      <g>
       <use xlink:href="#ma54014fe61" x="472.322404" y="332.64" style="fill: #ffffff; stroke: #ffffff; stroke-width: 0.8"/>
      </g>
     </g>
     <g id="text_9">
      <!-- 2023 -->
      <g transform="translate(458.406779 346.738438) scale(0.1 -0.1)">
       <defs>
        <path id="DejaVuSans-Bold-33" d="M 2981 2516 
Q 3453 2394 3698 2092 
Q 3944 1791 3944 1325 
Q 3944 631 3412 270 
Q 2881 -91 1863 -91 
Q 1503 -91 1142 -33 
Q 781 25 428 141 
L 428 1069 
Q 766 900 1098 814 
Q 1431 728 1753 728 
Q 2231 728 2486 893 
Q 2741 1059 2741 1369 
Q 2741 1688 2480 1852 
Q 2219 2016 1709 2016 
L 1228 2016 
L 1228 2791 
L 1734 2791 
Q 2188 2791 2409 2933 
Q 2631 3075 2631 3366 
Q 2631 3634 2415 3781 
Q 2200 3928 1806 3928 
Q 1516 3928 1219 3862 
Q 922 3797 628 3669 
L 628 4550 
Q 984 4650 1334 4700 
Q 1684 4750 2022 4750 
Q 2931 4750 3382 4451 
Q 3834 4153 3834 3553 
Q 3834 3144 3618 2883 
Q 3403 2622 2981 2516 
z
" transform="scale(0.015625)"/>
       </defs>
       <use xlink:href="#DejaVuSans-Bold-32"/>
       <use xlink:href="#DejaVuSans-Bold-30" x="69.580078"/>
       <use xlink:href="#DejaVuSans-Bold-32" x="139.160156"/>
       <use xlink:href="#DejaVuSans-Bold-33" x="208.740234"/>
      </g>
     </g>
    </g>
    <g id="xtick_10">
     <g id="line2d_20">
      <g>
       <use xlink:href="#ma54014fe61" x="519.842098" y="332.64" style="fill: #ffffff; stroke: #ffffff; stroke-width: 0.8"/>
      </g>
     </g>
     <g id="text_10">
      <!-- 2024 -->
      <g transform="translate(505.926473 346.738438) scale(0.1 -0.1)">
       <defs>
        <path id="DejaVuSans-Bold-34" d="M 2356 3675 
L 1038 1722 
L 2356 1722 
L 2356 3675 
z
M 2156 4666 
L 3494 4666 
L 3494 1722 
L 4159 1722 
L 4159 850 
L 3494 850 
L 3494 0 
L 2356 0 
L 2356 850 
L 288 850 
L 288 1881 
L 2156 4666 
z
" transform="scale(0.015625)"/>
       </defs>
       <use xlink:href="#DejaVuSans-Bold-32"/>
       <use xlink:href="#DejaVuSans-Bold-30" x="69.580078"/>
       <use xlink:href="#DejaVuSans-Bold-32" x="139.160156"/>
       <use xlink:href="#DejaVuSans-Bold-34" x="208.740234"/>
      </g>
     </g>
    </g>
    <g id="xtick_11">
     <g id="line2d_21">
      <g>
       <use xlink:href="#ma54014fe61" x="567.361791" y="332.64" style="fill: #ffffff; stroke: #ffffff; stroke-width: 0.8"/>
      </g>
     </g>
     <g id="text_11">
      <!-- 2025 -->
      <g transform="translate(553.446166 346.738438) scale(0.1 -0.1)">
       <use xlink:href="#DejaVuSans-Bold-32"/>
       <use xlink:href="#DejaVuSans-Bold-30" x="69.580078"/>
       <use xlink:href="#DejaVuSans-Bold-32" x="139.160156"/>
       <use xlink:href="#DejaVuSans-Bold-35" x="208.740234"/>
      </g>
     </g>
    </g>
   </g>
   <g id="matplotlib.axis_2">
    <g id="ytick_1">
     <g id="line2d_22">
      <defs>
       <path id="mbaa05855c7" d="M 0 0 
L -3.5 0 
" style="stroke: #000000; stroke-width: 0.8"/>
      </defs>
      <g>
       <use xlink:href="#mbaa05855c7" x="52.545313" y="332.64" style="stroke: #000000; stroke-width: 0.8"/>
      </g>
     </g>
     <g id="text_12">
      <!-- 0 -->
      <g transform="translate(38.5875 336.439219) scale(0.1 -0.1)">
       <use xlink:href="#DejaVuSans-Bold-30"/>
      </g>
     </g>
    </g>
    <g id="ytick_2">
     <g id="line2d_23">
      <g>
       <use xlink:href="#mbaa05855c7" x="52.545313" y="299.997032" style="stroke: #000000; stroke-width: 0.8"/>
      </g>
     </g>
     <g id="text_13">
      <!-- 10,000 -->
      <g transform="translate(6.957812 303.796251) scale(0.1 -0.1)">
       <defs>
        <path id="DejaVuSans-Bold-2c" d="M 653 1209 
L 1778 1209 
L 1778 256 
L 1006 -909 
L 341 -909 
L 653 256 
L 653 1209 
z
" transform="scale(0.015625)"/>
       </defs>
       <use xlink:href="#DejaVuSans-Bold-31"/>
       <use xlink:href="#DejaVuSans-Bold-30" x="69.580078"/>
       <use xlink:href="#DejaVuSans-Bold-2c" x="139.160156"/>
       <use xlink:href="#DejaVuSans-Bold-30" x="177.148438"/>
       <use xlink:href="#DejaVuSans-Bold-30" x="246.728516"/>
       <use xlink:href="#DejaVuSans-Bold-30" x="316.308594"/>
      </g>
     </g>
    </g>
    <g id="ytick_3">
     <g id="line2d_24">
      <g>
       <use xlink:href="#mbaa05855c7" x="52.545313" y="267.354065" style="stroke: #000000; stroke-width: 0.8"/>
      </g>
     </g>
     <g id="text_14">
      <!-- 20,000 -->
      <g transform="translate(6.957812 271.153284) scale(0.1 -0.1)">
       <use xlink:href="#DejaVuSans-Bold-32"/>
       <use xlink:href="#DejaVuSans-Bold-30" x="69.580078"/>
       <use xlink:href="#DejaVuSans-Bold-2c" x="139.160156"/>
       <use xlink:href="#DejaVuSans-Bold-30" x="177.148438"/>
       <use xlink:href="#DejaVuSans-Bold-30" x="246.728516"/>
       <use xlink:href="#DejaVuSans-Bold-30" x="316.308594"/>
      </g>
     </g>
    </g>
    <g id="ytick_4">
     <g id="line2d_25">
      <g>
       <use xlink:href="#mbaa05855c7" x="52.545313" y="234.711097" style="stroke: #000000; stroke-width: 0.8"/>
      </g>
     </g>
     <g id="text_15">
      <!-- 30,000 -->
      <g transform="translate(6.957812 238.510316) scale(0.1 -0.1)">
       <use xlink:href="#DejaVuSans-Bold-33"/>
       <use xlink:href="#DejaVuSans-Bold-30" x="69.580078"/>
       <use xlink:href="#DejaVuSans-Bold-2c" x="139.160156"/>
       <use xlink:href="#DejaVuSans-Bold-30" x="177.148438"/>
       <use xlink:href="#DejaVuSans-Bold-30" x="246.728516"/>
       <use xlink:href="#DejaVuSans-Bold-30" x="316.308594"/>
      </g>
     </g>
    </g>
    <g id="ytick_5">
     <g id="line2d_26">
      <g>
       <use xlink:href="#mbaa05855c7" x="52.545313" y="202.06813" style="stroke: #000000; stroke-width: 0.8"/>
      </g>
     </g>
     <g id="text_16">
      <!-- 40,000 -->
      <g transform="translate(6.957812 205.867349) scale(0.1 -0.1)">
       <use xlink:href="#DejaVuSans-Bold-34"/>
       <use xlink:href="#DejaVuSans-Bold-30" x="69.580078"/>
       <use xlink:href="#DejaVuSans-Bold-2c" x="139.160156"/>
       <use xlink:href="#DejaVuSans-Bold-30" x="177.148438"/>
       <use xlink:href="#DejaVuSans-Bold-30" x="246.728516"/>
       <use xlink:href="#DejaVuSans-Bold-30" x="316.308594"/>
      </g>
     </g>
    </g>
    <g id="ytick_6">
     <g id="line2d_27">
      <g>
       <use xlink:href="#mbaa05855c7" x="52.545313" y="169.425162" style="stroke: #000000; stroke-width: 0.8"/>
      </g>
     </g>
     <g id="text_17">
      <!-- 50,000 -->
      <g transform="translate(6.957812 173.224381) scale(0.1 -0.1)">
       <use xlink:href="#DejaVuSans-Bold-35"/>
       <use xlink:href="#DejaVuSans-Bold-30" x="69.580078"/>
       <use xlink:href="#DejaVuSans-Bold-2c" x="139.160156"/>
       <use xlink:href="#DejaVuSans-Bold-30" x="177.148438"/>
       <use xlink:href="#DejaVuSans-Bold-30" x="246.728516"/>
       <use xlink:href="#DejaVuSans-Bold-30" x="316.308594"/>
      </g>
     </g>
    </g>
    <g id="ytick_7">
     <g id="line2d_28">
      <g>
       <use xlink:href="#mbaa05855c7" x="52.545313" y="136.782195" style="stroke: #000000; stroke-width: 0.8"/>
      </g>
     </g>
     <g id="text_18">
      <!-- 60,000 -->
      <g transform="translate(6.957812 140.581413) scale(0.1 -0.1)">
       <use xlink:href="#DejaVuSans-Bold-36"/>
       <use xlink:href="#DejaVuSans-Bold-30" x="69.580078"/>
       <use xlink:href="#DejaVuSans-Bold-2c" x="139.160156"/>
       <use xlink:href="#DejaVuSans-Bold-30" x="177.148438"/>
       <use xlink:href="#DejaVuSans-Bold-30" x="246.728516"/>
       <use xlink:href="#DejaVuSans-Bold-30" x="316.308594"/>
      </g>
     </g>
    </g>
    <g id="ytick_8">
     <g id="line2d_29">
      <g>
       <use xlink:href="#mbaa05855c7" x="52.545313" y="104.139227" style="stroke: #000000; stroke-width: 0.8"/>
      </g>
     </g>
     <g id="text_19">
      <!-- 70,000 -->
      <g transform="translate(6.957812 107.938446) scale(0.1 -0.1)">
       <use xlink:href="#DejaVuSans-Bold-37"/>
       <use xlink:href="#DejaVuSans-Bold-30" x="69.580078"/>
       <use xlink:href="#DejaVuSans-Bold-2c" x="139.160156"/>
       <use xlink:href="#DejaVuSans-Bold-30" x="177.148438"/>
       <use xlink:href="#DejaVuSans-Bold-30" x="246.728516"/>
       <use xlink:href="#DejaVuSans-Bold-30" x="316.308594"/>
      </g>
     </g>
    </g>
    <g id="ytick_9">
     <g id="line2d_30">
      <g>
       <use xlink:href="#mbaa05855c7" x="52.545313" y="71.49626" style="stroke: #000000; stroke-width: 0.8"/>
      </g>
     </g>
     <g id="text_20">
      <!-- 80,000 -->
      <g transform="translate(6.957812 75.295478) scale(0.1 -0.1)">
       <use xlink:href="#DejaVuSans-Bold-38"/>
       <use xlink:href="#DejaVuSans-Bold-30" x="69.580078"/>
       <use xlink:href="#DejaVuSans-Bold-2c" x="139.160156"/>
       <use xlink:href="#DejaVuSans-Bold-30" x="177.148438"/>
       <use xlink:href="#DejaVuSans-Bold-30" x="246.728516"/>
       <use xlink:href="#DejaVuSans-Bold-30" x="316.308594"/>
      </g>
     </g>
    </g>
    <g id="ytick_10">
     <g id="line2d_31">
      <g>
       <use xlink:href="#mbaa05855c7" x="52.545313" y="38.853292" style="stroke: #000000; stroke-width: 0.8"/>
      </g>
     </g>
     <g id="text_21">
      <!-- 90,000 -->
      <g transform="translate(6.957812 42.652511) scale(0.1 -0.1)">
       <use xlink:href="#DejaVuSans-Bold-39"/>
       <use xlink:href="#DejaVuSans-Bold-30" x="69.580078"/>
       <use xlink:href="#DejaVuSans-Bold-2c" x="139.160156"/>
       <use xlink:href="#DejaVuSans-Bold-30" x="177.148438"/>
       <use xlink:href="#DejaVuSans-Bold-30" x="246.728516"/>
       <use xlink:href="#DejaVuSans-Bold-30" x="316.308594"/>
      </g>
     </g>
    </g>
    <g id="ytick_11">
     <g id="line2d_32">
      <g>
       <use xlink:href="#mbaa05855c7" x="52.545313" y="6.210325" style="stroke: #000000; stroke-width: 0.8"/>
      </g>
     </g>
     <g id="text_22">
      <!-- 100,000 -->
      <g transform="translate(0 10.009543) scale(0.1 -0.1)">
       <use xlink:href="#DejaVuSans-Bold-31"/>
       <use xlink:href="#DejaVuSans-Bold-30" x="69.580078"/>
       <use xlink:href="#DejaVuSans-Bold-30" x="139.160156"/>
       <use xlink:href="#DejaVuSans-Bold-2c" x="208.740234"/>
       <use xlink:href="#DejaVuSans-Bold-30" x="246.728516"/>
       <use xlink:href="#DejaVuSans-Bold-30" x="316.308594"/>
       <use xlink:href="#DejaVuSans-Bold-30" x="385.888672"/>
      </g>
     </g>
    </g>
   </g>
   <g id="patch_14">
    <path d="M 77.908949 332.64 
L 92.164857 332.64 
L 92.164857 171.168297 
L 77.908949 171.168297 
z
" clip-path="url(#p146882c142)" style="fill: #4682b4"/>
   </g>
   <g id="patch_15">
    <path d="M 125.428642 332.64 
L 139.68455 332.64 
L 139.68455 160.38306 
L 125.428642 160.38306 
z
" clip-path="url(#p146882c142)" style="fill: #4682b4"/>
   </g>
   <g id="patch_16">
    <path d="M 172.948336 332.64 
L 187.204244 332.64 
L 187.204244 152.333304 
L 172.948336 152.333304 
z
" clip-path="url(#p146882c142)" style="fill: #4682b4"/>
   </g>
   <g id="patch_17">
    <path d="M 220.468029 332.64 
L 234.723937 332.64 
L 234.723937 141.231431 
L 220.468029 141.231431 
z
" clip-path="url(#p146882c142)" style="fill: #4682b4"/>
   </g>
   <g id="patch_18">
    <path d="M 267.987723 332.64 
L 282.243631 332.64 
L 282.243631 135.822491 
L 267.987723 135.822491 
z
" clip-path="url(#p146882c142)" style="fill: #4682b4"/>
   </g>
   <g id="patch_19">
    <path d="M 315.507416 332.64 
L 329.763324 332.64 
L 329.763324 128.833632 
L 315.507416 128.833632 
z
" clip-path="url(#p146882c142)" style="fill: #4682b4"/>
   </g>
   <g id="patch_20">
    <path d="M 363.027109 332.64 
L 377.283017 332.64 
L 377.283017 122.664111 
L 363.027109 122.664111 
z
" clip-path="url(#p146882c142)" style="fill: #4682b4"/>
   </g>
   <g id="patch_21">
    <path d="M 410.546803 332.64 
L 424.802711 332.64 
L 424.802711 114.77757 
L 410.546803 114.77757 
z
" clip-path="url(#p146882c142)" style="fill: #4682b4"/>
   </g>
   <g id="patch_22">
    <path d="M 458.066496 332.64 
L 472.322404 332.64 
L 472.322404 109.502467 
L 458.066496 109.502467 
z
" clip-path="url(#p146882c142)" style="fill: #4682b4"/>
   </g>
   <g id="patch_23">
    <path d="M 502.022213 332.64 
L 516.278121 332.64 
L 516.278121 103.969484 
L 502.022213 103.969484 
z
" clip-path="url(#p146882c142)" style="fill: #4682b4"/>
   </g>
   <g id="patch_24">
    <path d="M 549.541906 332.64 
L 563.797814 332.64 
L 563.797814 94.192915 
L 549.541906 94.192915 
z
" clip-path="url(#p146882c142)" style="fill: #4682b4"/>
   </g>
   <g id="patch_25">
    <path d="M 85.036903 332.64 
L 99.292811 332.64 
L 99.292811 272.27336 
L 85.036903 272.27336 
z
" clip-path="url(#p146882c142)" style="fill: #00b0f0"/>
   </g>
   <g id="patch_26">
    <path d="M 132.556596 332.64 
L 146.812504 332.64 
L 146.812504 271.117799 
L 132.556596 271.117799 
z
" clip-path="url(#p146882c142)" style="fill: #00b0f0"/>
   </g>
   <g id="patch_27">
    <path d="M 180.07629 332.64 
L 194.332198 332.64 
L 194.332198 263.40753 
L 180.07629 263.40753 
z
" clip-path="url(#p146882c142)" style="fill: #00b0f0"/>
   </g>
   <g id="patch_28">
    <path d="M 227.595983 332.64 
L 241.851891 332.64 
L 241.851891 260.642671 
L 227.595983 260.642671 
z
" clip-path="url(#p146882c142)" style="fill: #00b0f0"/>
   </g>
   <g id="patch_29">
    <path d="M 275.115677 332.64 
L 289.371585 332.64 
L 289.371585 259.95064 
L 275.115677 259.95064 
z
" clip-path="url(#p146882c142)" style="fill: #00b0f0"/>
   </g>
   <g id="patch_30">
    <path d="M 322.63537 332.64 
L 336.891278 332.64 
L 336.891278 261.595845 
L 322.63537 261.595845 
z
" clip-path="url(#p146882c142)" style="fill: #00b0f0"/>
   </g>
   <g id="patch_31">
    <path d="M 370.155063 332.64 
L 384.410971 332.64 
L 384.410971 260.544742 
L 370.155063 260.544742 
z
" clip-path="url(#p146882c142)" style="fill: #00b0f0"/>
   </g>
   <g id="patch_32">
    <path d="M 417.674757 332.64 
L 431.930665 332.64 
L 431.930665 259.833125 
L 417.674757 259.833125 
z
" clip-path="url(#p146882c142)" style="fill: #00b0f0"/>
   </g>
   <g id="patch_33">
    <path d="M 465.19445 332.64 
L 479.450358 332.64 
L 479.450358 261.161694 
L 465.19445 261.161694 
z
" clip-path="url(#p146882c142)" style="fill: #00b0f0"/>
   </g>
   <g id="patch_34">
    <path d="M 509.150167 332.64 
L 523.406075 332.64 
L 523.406075 259.082337 
L 509.150167 259.082337 
z
" clip-path="url(#p146882c142)" style="fill: #00b0f0"/>
   </g>
   <g id="patch_35">
    <path d="M 556.66986 332.64 
L 570.925768 332.64 
L 570.925768 256.787536 
L 556.66986 256.787536 
z
" clip-path="url(#p146882c142)" style="fill: #00b0f0"/>
   </g>
   <g id="patch_36">
    <path d="M 92.164857 332.64 
L 106.420765 332.64 
L 106.420765 331.807604 
L 92.164857 331.807604 
z
" clip-path="url(#p146882c142)" style="fill: #00008b"/>
   </g>
   <g id="patch_37">
    <path d="M 139.68455 332.64 
L 153.940458 332.64 
L 153.940458 331.699883 
L 139.68455 331.699883 
z
" clip-path="url(#p146882c142)" style="fill: #00008b"/>
   </g>
   <g id="patch_38">
    <path d="M 187.204244 332.64 
L 201.460152 332.64 
L 201.460152 331.50076 
L 187.204244 331.50076 
z
" clip-path="url(#p146882c142)" style="fill: #00008b"/>
   </g>
   <g id="patch_39">
    <path d="M 234.723937 332.64 
L 248.979845 332.64 
L 248.979845 331.693354 
L 234.723937 331.693354 
z
" clip-path="url(#p146882c142)" style="fill: #00008b"/>
   </g>
   <g id="patch_40">
    <path d="M 282.243631 332.64 
L 296.499539 332.64 
L 296.499539 331.468117 
L 282.243631 331.468117 
z
" clip-path="url(#p146882c142)" style="fill: #00008b"/>
   </g>
   <g id="patch_41">
    <path d="M 329.763324 332.64 
L 344.019232 332.64 
L 344.019232 331.559518 
L 329.763324 331.559518 
z
" clip-path="url(#p146882c142)" style="fill: #00008b"/>
   </g>
   <g id="patch_42">
    <path d="M 377.283017 332.64 
L 391.538925 332.64 
L 391.538925 331.373453 
L 377.283017 331.373453 
z
" clip-path="url(#p146882c142)" style="fill: #00008b"/>
   </g>
   <g id="patch_43">
    <path d="M 424.802711 332.64 
L 439.058619 332.64 
L 439.058619 331.357131 
L 424.802711 331.357131 
z
" clip-path="url(#p146882c142)" style="fill: #00008b"/>
   </g>
   <g id="patch_44">
    <path d="M 472.322404 332.64 
L 486.578312 332.64 
L 486.578312 330.87728 
L 472.322404 330.87728 
z
" clip-path="url(#p146882c142)" style="fill: #00008b"/>
   </g>
   <g id="patch_45">
    <path d="M 516.278121 332.64 
L 530.534029 332.64 
L 530.534029 330.802201 
L 516.278121 330.802201 
z
" clip-path="url(#p146882c142)" style="fill: #00008b"/>
   </g>
   <g id="patch_46">
    <path d="M 563.797814 332.64 
L 578.053722 332.64 
L 578.053722 330.821787 
L 563.797814 330.821787 
z
" clip-path="url(#p146882c142)" style="fill: #00008b"/>
   </g>
   <g id="patch_47">
    <path d="M 523.406075 332.64 
L 537.661983 332.64 
L 537.661983 331.703147 
L 523.406075 331.703147 
z
" clip-path="url(#p146882c142)" style="fill: #ff8c00"/>
   </g>
   <g id="patch_48">
    <path d="M 570.925768 332.64 
L 585.181676 332.64 
L 585.181676 331.957762 
L 570.925768 331.957762 
z
" clip-path="url(#p146882c142)" style="fill: #ff8c00"/>
   </g>
   <g id="legend_1">
    <g id="patch_49">
     <path d="M 75.945312 17.428359 
L 96.945312 17.428359 
L 96.945312 10.078359 
L 75.945312 10.078359 
z
" style="fill: #d3d3d3; opacity: 0.9"/>
    </g>
    <g id="text_23">
     <!-- All -->
     <g transform="translate(105.345313 17.428359) scale(0.105 -0.105)">
      <defs>
       <path id="DejaVuSans-41" d="M 2188 4044 
L 1331 1722 
L 3047 1722 
L 2188 4044 
z
M 1831 4666 
L 2547 4666 
L 4325 0 
L 3669 0 
L 3244 1197 
L 1141 1197 
L 716 0 
L 50 0 
L 1831 4666 
z
" transform="scale(0.015625)"/>
       <path id="DejaVuSans-6c" d="M 603 4863 
L 1178 4863 
L 1178 0 
L 603 0 
L 603 4863 
z
" transform="scale(0.015625)"/>
      </defs>
      <use xlink:href="#DejaVuSans-41"/>
      <use xlink:href="#DejaVuSans-6c" x="68.408203"/>
      <use xlink:href="#DejaVuSans-6c" x="96.191406"/>
     </g>
    </g>
    <g id="patch_50">
     <path d="M 75.945312 32.840391 
L 96.945312 32.840391 
L 96.945312 25.490391 
L 75.945312 25.490391 
z
" style="fill: #4682b4"/>
    </g>
    <g id="text_24">
     <!-- Cat1 -->
     <g transform="translate(105.345313 32.840391) scale(0.105 -0.105)">
      <defs>
       <path id="DejaVuSans-43" d="M 4122 4306 
L 4122 3641 
Q 3803 3938 3442 4084 
Q 3081 4231 2675 4231 
Q 1875 4231 1450 3742 
Q 1025 3253 1025 2328 
Q 1025 1406 1450 917 
Q 1875 428 2675 428 
Q 3081 428 3442 575 
Q 3803 722 4122 1019 
L 4122 359 
Q 3791 134 3420 21 
Q 3050 -91 2638 -91 
Q 1578 -91 968 557 
Q 359 1206 359 2328 
Q 359 3453 968 4101 
Q 1578 4750 2638 4750 
Q 3056 4750 3426 4639 
Q 3797 4528 4122 4306 
z
" transform="scale(0.015625)"/>
       <path id="DejaVuSans-61" d="M 2194 1759 
Q 1497 1759 1228 1600 
Q 959 1441 959 1056 
Q 959 750 1161 570 
Q 1363 391 1709 391 
Q 2188 391 2477 730 
Q 2766 1069 2766 1631 
L 2766 1759 
L 2194 1759 
z
M 3341 1997 
L 3341 0 
L 2766 0 
L 2766 531 
Q 2569 213 2275 61 
Q 1981 -91 1556 -91 
Q 1019 -91 701 211 
Q 384 513 384 1019 
Q 384 1609 779 1909 
Q 1175 2209 1959 2209 
L 2766 2209 
L 2766 2266 
Q 2766 2663 2505 2880 
Q 2244 3097 1772 3097 
Q 1472 3097 1187 3025 
Q 903 2953 641 2809 
L 641 3341 
Q 956 3463 1253 3523 
Q 1550 3584 1831 3584 
Q 2591 3584 2966 3190 
Q 3341 2797 3341 1997 
z
" transform="scale(0.015625)"/>
       <path id="DejaVuSans-74" d="M 1172 4494 
L 1172 3500 
L 2356 3500 
L 2356 3053 
L 1172 3053 
L 1172 1153 
Q 1172 725 1289 603 
Q 1406 481 1766 481 
L 2356 481 
L 2356 0 
L 1766 0 
Q 1100 0 847 248 
Q 594 497 594 1153 
L 594 3053 
L 172 3053 
L 172 3500 
L 594 3500 
L 594 4494 
L 1172 4494 
z
" transform="scale(0.015625)"/>
       <path id="DejaVuSans-31" d="M 794 531 
L 1825 531 
L 1825 4091 
L 703 3866 
L 703 4441 
L 1819 4666 
L 2450 4666 
L 2450 531 
L 3481 531 
L 3481 0 
L 794 0 
L 794 531 
z
" transform="scale(0.015625)"/>
      </defs>
      <use xlink:href="#DejaVuSans-43"/>
      <use xlink:href="#DejaVuSans-61" x="69.824219"/>
      <use xlink:href="#DejaVuSans-74" x="131.103516"/>
      <use xlink:href="#DejaVuSans-31" x="170.3125"/>
     </g>
    </g>
    <g id="patch_51">
     <path d="M 150.90875 17.428359 
L 171.90875 17.428359 
L 171.90875 10.078359 
L 150.90875 10.078359 
z
" style="fill: #00b0f0"/>
    </g>
    <g id="text_25">
     <!-- Cat2 -->
     <g transform="translate(180.30875 17.428359) scale(0.105 -0.105)">
      <defs>
       <path id="DejaVuSans-32" d="M 1228 531 
L 3431 531 
L 3431 0 
L 469 0 
L 469 531 
Q 828 903 1448 1529 
Q 2069 2156 2228 2338 
Q 2531 2678 2651 2914 
Q 2772 3150 2772 3378 
Q 2772 3750 2511 3984 
Q 2250 4219 1831 4219 
Q 1534 4219 1204 4116 
Q 875 4013 500 3803 
L 500 4441 
Q 881 4594 1212 4672 
Q 1544 4750 1819 4750 
Q 2544 4750 2975 4387 
Q 3406 4025 3406 3419 
Q 3406 3131 3298 2873 
Q 3191 2616 2906 2266 
Q 2828 2175 2409 1742 
Q 1991 1309 1228 531 
z
" transform="scale(0.015625)"/>
      </defs>
      <use xlink:href="#DejaVuSans-43"/>
      <use xlink:href="#DejaVuSans-61" x="69.824219"/>
      <use xlink:href="#DejaVuSans-74" x="131.103516"/>
      <use xlink:href="#DejaVuSans-32" x="170.3125"/>
     </g>
    </g>
    <g id="patch_52">
     <path d="M 150.90875 32.840391 
L 171.90875 32.840391 
L 171.90875 25.490391 
L 150.90875 25.490391 
z
" style="fill: #00008b"/>
    </g>
    <g id="text_26">
     <!-- Cat3 -->
     <g transform="translate(180.30875 32.840391) scale(0.105 -0.105)">
      <defs>
       <path id="DejaVuSans-33" d="M 2597 2516 
Q 3050 2419 3304 2112 
Q 3559 1806 3559 1356 
Q 3559 666 3084 287 
Q 2609 -91 1734 -91 
Q 1441 -91 1130 -33 
Q 819 25 488 141 
L 488 750 
Q 750 597 1062 519 
Q 1375 441 1716 441 
Q 2309 441 2620 675 
Q 2931 909 2931 1356 
Q 2931 1769 2642 2001 
Q 2353 2234 1838 2234 
L 1294 2234 
L 1294 2753 
L 1863 2753 
Q 2328 2753 2575 2939 
Q 2822 3125 2822 3475 
Q 2822 3834 2567 4026 
Q 2313 4219 1838 4219 
Q 1578 4219 1281 4162 
Q 984 4106 628 3988 
L 628 4550 
Q 988 4650 1302 4700 
Q 1616 4750 1894 4750 
Q 2613 4750 3031 4423 
Q 3450 4097 3450 3541 
Q 3450 3153 3228 2886 
Q 3006 2619 2597 2516 
z
" transform="scale(0.015625)"/>
      </defs>
      <use xlink:href="#DejaVuSans-43"/>
      <use xlink:href="#DejaVuSans-61" x="69.824219"/>
      <use xlink:href="#DejaVuSans-74" x="131.103516"/>
      <use xlink:href="#DejaVuSans-33" x="170.3125"/>
     </g>
    </g>
    <g id="patch_53">
     <path d="M 225.872187 17.428359 
L 246.872187 17.428359 
L 246.872187 10.078359 
L 225.872187 10.078359 
z
" style="fill: #ff8c00"/>
    </g>
    <g id="text_27">
     <!-- Cat4 -->
     <g transform="translate(255.272188 17.428359) scale(0.105 -0.105)">
      <defs>
       <path id="DejaVuSans-34" d="M 2419 4116 
L 825 1625 
L 2419 1625 
L 2419 4116 
z
M 2253 4666 
L 3047 4666 
L 3047 1625 
L 3713 1625 
L 3713 1100 
L 3047 1100 
L 3047 0 
L 2419 0 
L 2419 1100 
L 313 1100 
L 313 1709 
L 2253 4666 
z
" transform="scale(0.015625)"/>
      </defs>
      <use xlink:href="#DejaVuSans-43"/>
      <use xlink:href="#DejaVuSans-61" x="69.824219"/>
      <use xlink:href="#DejaVuSans-74" x="131.103516"/>
      <use xlink:href="#DejaVuSans-34" x="170.3125"/>
     </g>
    </g>
   </g>
  </g>
 </g>
 <defs>
  <clipPath id="p146882c142">
   <rect x="52.545313" y="0" width="558" height="332.64"/>
  </clipPath>
 </defs>
</svg>
